<?xml version="1.0" encoding="utf-8"?>
<!-- Generator: Adobe Illustrator 25.3.1, SVG Export Plug-In . SVG Version: 6.00 Build 0)  -->
<svg version="1.1" id="Layer_1" xmlns="http://www.w3.org/2000/svg" xmlns:xlink="http://www.w3.org/1999/xlink" x="0px" y="0px"
	 viewBox="0 0 665 202" style="enable-background:new 0 0 665 202;" xml:space="preserve">
<style type="text/css">
	.st0{fill:#004B87;}
	.st1{fill:#221F1F;}
	.st2{fill:#835B45;}
	.st3{fill:#046A38;}
	.st4{fill:#00B74F;}
	.st5{fill:#00B74F;stroke:#00B74F;stroke-width:0.1547;stroke-miterlimit:10;}
	.st6{fill:#00B74F;stroke:#00B74F;stroke-width:0.202;stroke-miterlimit:10;}
	.st7{fill:#A65523;}
	.st8{fill:#00B74F;stroke:#00B74F;stroke-width:0.1427;stroke-miterlimit:10;}
</style>
<g>
	<g>
		<path class="st0" d="M192.96,20.96c-6.75,0-12.5,2.38-17.26,7.13c-4.75,4.75-7.13,10.51-7.13,17.26c0,8.2,3.72,14.43,11.16,18.7
			c3.03,1.72,11.57,4.62,25.63,8.68c11.3,3.38,19.5,7.37,24.59,11.99c7.44,6.75,11.16,16.36,11.16,28.83
			c0,12.13-4.31,22.46-12.92,31c-8.54,8.54-18.84,12.81-30.9,12.81h-39.37c-2.55,0-4.75-0.93-6.61-2.79
			c-1.86-1.86-2.79-4.06-2.79-6.61v-0.62c0-2.55,0.93-4.75,2.79-6.61c1.86-1.86,4.06-2.79,6.61-2.79h40.41
			c6.68,0,12.43-2.38,17.26-7.13c4.75-4.75,7.13-10.5,7.13-17.26c0-8.06-3.72-14.33-11.16-18.81c-3.24-1.93-11.78-5.06-25.63-9.4
			c-11.37-3.72-19.57-7.85-24.59-12.4c-7.44-6.68-11.16-15.88-11.16-27.59c0-12.12,4.27-22.46,12.81-31
			c8.54-8.54,18.88-12.81,31-12.81h27.8c2.62,0,4.86,0.93,6.72,2.79c1.79,1.79,2.69,4,2.69,6.61v0.62c0,2.55-0.9,4.75-2.69,6.61
			c-1.86,1.86-4.1,2.79-6.72,2.79H192.96z"/>
		<path class="st0" d="M339.9,128.85c0-8.13-2.89-15.09-8.68-20.88c-5.24-5.3-11.51-8.16-18.81-8.58h-33.69v48.57
			c0,2.62-0.9,4.82-2.69,6.61c-1.86,1.86-4.1,2.79-6.72,2.79h-0.21c-2.62,0-4.82-0.93-6.61-2.79c-1.86-1.79-2.79-4-2.79-6.61V39.35
			c0-10.26,3.62-19.01,10.85-26.25c7.3-7.3,16.08-10.95,26.35-10.95h13.43c13.43,0,24.87,4.75,34.31,14.26
			c9.51,9.51,14.26,20.98,14.26,34.41c0,13.36-4.75,24.8-14.26,34.31c-1.72,1.72-3.48,3.27-5.27,4.65c1.86,1.45,3.65,3.03,5.37,4.75
			c9.44,9.44,14.16,20.88,14.16,34.31v19.12c0,2.62-0.93,4.82-2.79,6.61c-1.86,1.86-4.07,2.79-6.61,2.79h-0.21
			c-2.55,0-4.75-0.93-6.61-2.79c-1.86-1.79-2.79-4-2.79-6.61V128.85z M310.35,80.28c8.13,0,15.09-2.86,20.87-8.58
			c5.79-5.79,8.68-12.74,8.68-20.87c0-8.2-2.89-15.19-8.68-20.98c-5.79-5.72-12.75-8.58-20.87-8.58h-11.88
			c-5.99,0-10.75,1.72-14.26,5.17c-2.76,2.69-4.48,5.89-5.17,9.61c-0.21,0.96-0.31,2.38-0.31,4.24v39.99H310.35z"/>
		<path class="st0" d="M389.3,2.15c2.55,0,4.75,0.9,6.61,2.69c1.86,1.86,2.79,4.1,2.79,6.72v136.41c0,2.62-0.93,4.82-2.79,6.61
			c-1.86,1.86-4.07,2.79-6.61,2.79h-0.31c-2.55,0-4.75-0.93-6.61-2.79c-1.86-1.79-2.79-4-2.79-6.61V11.56
			c0-2.62,0.93-4.86,2.79-6.72c1.86-1.79,4.06-2.69,6.61-2.69H389.3z"/>
		<path class="st0" d="M443.66,70.25h46.19c2.55,0,4.75,0.9,6.61,2.69c1.86,1.86,2.79,4.1,2.79,6.72v0.21
			c0,2.62-0.93,4.82-2.79,6.61c-1.86,1.86-4.07,2.79-6.61,2.79h-46.19v58.7c0,2.62-0.93,4.82-2.79,6.61
			c-1.86,1.86-4.07,2.79-6.61,2.79h-0.31c-2.55,0-4.75-0.93-6.61-2.79c-1.86-1.79-2.79-4-2.79-6.61V36.77
			c0-9.58,3.37-17.74,10.13-24.49c6.75-6.75,14.92-10.13,24.49-10.13h31.73c2.55,0,4.75,0.9,6.61,2.69c1.86,1.86,2.79,4.1,2.79,6.72
			v0.21c0,2.62-0.93,4.86-2.79,6.72c-1.86,1.79-4.07,2.69-6.61,2.69h-31.73c-4.27,0-7.92,1.52-10.95,4.55
			c-3.03,3.03-4.55,6.72-4.55,11.06V70.25z"/>
		<path class="st0" d="M527.57,2.15c2.55,0,4.75,0.9,6.61,2.69c1.86,1.86,2.79,4.1,2.79,6.72v136.41c0,2.62-0.93,4.82-2.79,6.61
			c-1.86,1.86-4.07,2.79-6.61,2.79h-0.31c-2.55,0-4.75-0.93-6.61-2.79c-1.86-1.79-2.79-4-2.79-6.61V11.56
			c0-2.62,0.93-4.86,2.79-6.72c1.86-1.79,4.07-2.69,6.61-2.69H527.57z"/>
		<path class="st0" d="M663.56,147.96c0,2.62-0.93,4.82-2.79,6.61c-1.86,1.86-4.07,2.79-6.61,2.79h-0.31
			c-2.55,0-4.75-0.93-6.61-2.79c-1.86-1.79-2.79-4-2.79-6.61V52.48c0-8.61-3.03-15.98-9.09-22.11c-6.13-6.13-13.54-9.2-22.22-9.2
			c-8.61,0-15.98,3.07-22.11,9.2c-6.06,6.13-9.09,13.5-9.09,22.11v95.48c0,2.62-0.93,4.82-2.79,6.61c-1.86,1.86-4.07,2.79-6.61,2.79
			h-0.31c-2.55,0-4.75-0.93-6.61-2.79c-1.86-1.79-2.79-4-2.79-6.61V52.48c0-13.92,4.92-25.8,14.78-35.65
			c9.85-9.78,21.7-14.67,35.55-14.67c13.92,0,25.8,4.89,35.65,14.67c9.85,9.85,14.78,21.74,14.78,35.65V147.96z"/>
	</g>
	<g>
		<path class="st1" d="M161.6,181.12c-1.19,0-2.25,0.2-3.2,0.61c-0.95,0.41-1.75,0.99-2.41,1.76c-0.66,0.77-1.17,1.7-1.52,2.78
			c-0.35,1.09-0.53,2.31-0.53,3.67c0,1.8,0.28,3.37,0.84,4.69c0.56,1.33,1.41,2.35,2.53,3.08c1.12,0.72,2.53,1.09,4.21,1.09
			c0.96,0,1.86-0.08,2.71-0.24c0.85-0.16,1.67-0.36,2.48-0.61v2.17c-0.78,0.29-1.61,0.51-2.47,0.65c-0.86,0.14-1.89,0.21-3.07,0.21
			c-2.18,0-4.01-0.45-5.47-1.36c-1.46-0.91-2.56-2.19-3.29-3.84c-0.73-1.66-1.09-3.61-1.09-5.86c0-1.63,0.23-3.11,0.68-4.46
			c0.46-1.35,1.12-2.51,2-3.49c0.88-0.98,1.95-1.74,3.23-2.27c1.28-0.53,2.75-0.8,4.4-0.8c1.09,0,2.14,0.11,3.14,0.32
			c1.01,0.22,1.92,0.52,2.73,0.93l-1,2.12c-0.69-0.31-1.44-0.59-2.26-0.82C163.43,181.23,162.55,181.12,161.6,181.12z"/>
		<path class="st1" d="M188.4,184.31c0.32,0,0.66,0.02,1.01,0.05c0.35,0.03,0.67,0.08,0.94,0.14l-0.31,2.26
			c-0.26-0.07-0.56-0.12-0.88-0.16c-0.32-0.04-0.63-0.06-0.91-0.06c-0.65,0-1.26,0.13-1.83,0.39c-0.57,0.26-1.08,0.63-1.51,1.12
			c-0.43,0.48-0.77,1.07-1.01,1.75c-0.24,0.68-0.37,1.44-0.37,2.27v8.64h-2.45v-16.1h2.03l0.26,2.97h0.1
			c0.33-0.6,0.73-1.14,1.2-1.64c0.47-0.49,1.02-0.89,1.64-1.18S187.64,184.31,188.4,184.31z"/>
		<path class="st1" d="M209.67,184.31c1.37,0,2.55,0.3,3.53,0.91c0.98,0.61,1.73,1.46,2.25,2.55c0.52,1.09,0.78,2.37,0.78,3.83v1.51
			H205.1c0.03,1.89,0.5,3.33,1.41,4.32c0.91,0.99,2.19,1.48,3.85,1.48c1.02,0,1.92-0.09,2.7-0.28c0.78-0.19,1.6-0.46,2.44-0.82v2.15
			c-0.81,0.36-1.62,0.63-2.42,0.79c-0.8,0.17-1.74,0.25-2.83,0.25c-1.55,0-2.9-0.32-4.05-0.95s-2.05-1.56-2.68-2.78
			c-0.64-1.22-0.96-2.72-0.96-4.5c0-1.73,0.29-3.24,0.88-4.5c0.58-1.27,1.41-2.25,2.47-2.93
			C206.97,184.65,208.23,184.31,209.67,184.31z M209.64,186.31c-1.3,0-2.34,0.43-3.12,1.28c-0.77,0.85-1.23,2.04-1.38,3.57h8.52
			c-0.01-0.96-0.16-1.8-0.45-2.53c-0.29-0.73-0.73-1.3-1.32-1.7C211.31,186.51,210.56,186.31,209.64,186.31z"/>
		<path class="st1" d="M236.17,201c-2.04,0-3.65-0.7-4.84-2.09c-1.19-1.39-1.78-3.46-1.78-6.2c0-2.77,0.61-4.87,1.82-6.28
			c1.21-1.42,2.83-2.12,4.85-2.12c0.85,0,1.6,0.11,2.23,0.34c0.64,0.23,1.19,0.53,1.65,0.9c0.46,0.38,0.85,0.81,1.16,1.29h0.18
			c-0.04-0.3-0.08-0.72-0.12-1.25c-0.04-0.53-0.06-0.96-0.06-1.29v-6.45h2.44v22.86h-1.97l-0.37-2.29h-0.1
			c-0.3,0.48-0.69,0.92-1.15,1.31c-0.47,0.39-1.02,0.7-1.66,0.93C237.8,200.88,237.05,201,236.17,201z M236.56,198.97
			c1.72,0,2.94-0.49,3.66-1.47c0.72-0.98,1.07-2.43,1.07-4.36v-0.44c0-2.05-0.34-3.62-1.02-4.72c-0.68-1.1-1.92-1.65-3.71-1.65
			c-1.5,0-2.62,0.58-3.36,1.73c-0.74,1.15-1.12,2.72-1.12,4.71c0,1.98,0.37,3.51,1.11,4.58
			C233.92,198.43,235.05,198.97,236.56,198.97z"/>
		<path class="st1" d="M260.19,178.58c0.4,0,0.75,0.13,1.04,0.39c0.29,0.26,0.43,0.66,0.43,1.21c0,0.54-0.15,0.94-0.43,1.2
			c-0.29,0.26-0.63,0.4-1.04,0.4c-0.42,0-0.77-0.13-1.05-0.4c-0.28-0.26-0.42-0.67-0.42-1.2c0-0.55,0.14-0.95,0.42-1.21
			C259.41,178.71,259.76,178.58,260.19,178.58z M261.38,184.6v16.1h-2.44v-16.1H261.38z"/>
		<path class="st1" d="M281.82,199c0.4,0,0.81-0.03,1.23-0.1s0.76-0.15,1.03-0.25v1.9c-0.28,0.13-0.68,0.24-1.18,0.32
			c-0.5,0.09-1,0.13-1.48,0.13c-0.85,0-1.63-0.15-2.32-0.45s-1.25-0.81-1.67-1.52c-0.42-0.72-0.63-1.7-0.63-2.97v-9.55h-2.29v-1.19
			l2.31-0.96l0.97-3.5h1.47v3.73h4.72v1.91h-4.72v9.48c0,1.01,0.23,1.76,0.7,2.26C280.42,198.75,281.04,199,281.82,199z"/>
		<path class="st1" d="M321.3,179.22c2.77,0,4.8,0.54,6.08,1.62c1.28,1.08,1.92,2.63,1.92,4.65c0,0.91-0.15,1.78-0.45,2.59
			c-0.3,0.82-0.78,1.54-1.45,2.16c-0.67,0.62-1.54,1.11-2.62,1.47c-1.08,0.36-2.41,0.54-3.97,0.54h-2.62v8.45h-2.5v-21.48H321.3z
			 M321.07,181.35h-2.88v8.76h2.34c1.37,0,2.51-0.15,3.43-0.44c0.92-0.29,1.6-0.77,2.07-1.43c0.46-0.66,0.69-1.54,0.69-2.64
			c0-1.43-0.46-2.5-1.37-3.2C324.43,181.7,323.01,181.35,321.07,181.35z"/>
		<path class="st1" d="M350.82,184.31c0.32,0,0.66,0.02,1.01,0.05c0.35,0.03,0.67,0.08,0.94,0.14l-0.31,2.26
			c-0.26-0.07-0.56-0.12-0.88-0.16c-0.32-0.04-0.63-0.06-0.91-0.06c-0.65,0-1.26,0.13-1.83,0.39c-0.57,0.26-1.07,0.63-1.51,1.12
			c-0.43,0.48-0.77,1.07-1.01,1.75c-0.24,0.68-0.37,1.44-0.37,2.27v8.64h-2.45v-16.1h2.03l0.26,2.97h0.1
			c0.33-0.6,0.73-1.14,1.2-1.64c0.47-0.49,1.02-0.89,1.64-1.18C349.36,184.45,350.06,184.31,350.82,184.31z"/>
		<path class="st1" d="M367.13,178.58c0.4,0,0.75,0.13,1.04,0.39c0.29,0.26,0.43,0.66,0.43,1.21c0,0.54-0.15,0.94-0.43,1.2
			c-0.29,0.26-0.63,0.4-1.04,0.4c-0.42,0-0.77-0.13-1.05-0.4c-0.28-0.26-0.42-0.67-0.42-1.2c0-0.55,0.14-0.95,0.42-1.21
			C366.36,178.71,366.71,178.58,367.13,178.58z M368.32,184.6v16.1h-2.44v-16.1H368.32z"/>
		<path class="st1" d="M387.1,200.71l-6.11-16.1h2.62l3.54,9.74c0.24,0.67,0.49,1.4,0.75,2.2c0.25,0.8,0.43,1.45,0.53,1.94h0.1
			c0.12-0.49,0.31-1.14,0.59-1.95c0.27-0.81,0.52-1.54,0.75-2.2l3.54-9.74h2.62l-6.13,16.1H387.1z"/>
		<path class="st1" d="M414.7,184.34c1.92,0,3.35,0.43,4.28,1.29c0.93,0.86,1.4,2.24,1.4,4.13v10.95h-1.78l-0.47-2.38h-0.12
			c-0.45,0.59-0.92,1.08-1.41,1.48c-0.49,0.4-1.06,0.7-1.7,0.9c-0.64,0.2-1.43,0.3-2.36,0.3c-0.98,0-1.85-0.17-2.61-0.51
			c-0.76-0.34-1.36-0.86-1.79-1.56c-0.44-0.7-0.65-1.58-0.65-2.64c0-1.61,0.64-2.84,1.91-3.7c1.27-0.86,3.21-1.33,5.82-1.41
			l2.78-0.12v-0.98c0-1.39-0.3-2.37-0.9-2.92c-0.6-0.56-1.44-0.84-2.53-0.84c-0.84,0-1.65,0.12-2.41,0.37
			c-0.76,0.24-1.49,0.53-2.17,0.87l-0.75-1.85c0.72-0.37,1.56-0.69,2.5-0.96C412.67,184.47,413.66,184.34,414.7,184.34z
			 M417.96,192.77l-2.45,0.1c-2.01,0.08-3.42,0.41-4.25,0.98c-0.82,0.58-1.23,1.4-1.23,2.45c0,0.92,0.28,1.6,0.84,2.04
			c0.56,0.44,1.3,0.66,2.22,0.66c1.43,0,2.6-0.4,3.51-1.19c0.91-0.79,1.37-1.98,1.37-3.57V192.77z"/>
		<path class="st1" d="M440.68,199c0.4,0,0.81-0.03,1.23-0.1s0.76-0.15,1.03-0.25v1.9c-0.28,0.13-0.68,0.24-1.18,0.32
			c-0.5,0.09-1,0.13-1.48,0.13c-0.85,0-1.63-0.15-2.32-0.45c-0.7-0.3-1.25-0.81-1.67-1.52c-0.42-0.72-0.62-1.7-0.62-2.97v-9.55
			h-2.29v-1.19l2.31-0.96l0.97-3.5h1.47v3.73h4.72v1.91h-4.72v9.48c0,1.01,0.23,1.76,0.7,2.26C439.29,198.75,439.91,199,440.68,199z
			"/>
		<path class="st1" d="M462.49,184.31c1.37,0,2.55,0.3,3.53,0.91c0.98,0.61,1.73,1.46,2.25,2.55c0.52,1.09,0.78,2.37,0.78,3.83v1.51
			h-11.12c0.03,1.89,0.5,3.33,1.41,4.32c0.91,0.99,2.19,1.48,3.85,1.48c1.02,0,1.92-0.09,2.7-0.28c0.78-0.19,1.6-0.46,2.44-0.82
			v2.15c-0.81,0.36-1.62,0.63-2.42,0.79c-0.8,0.17-1.74,0.25-2.83,0.25c-1.55,0-2.9-0.32-4.05-0.95c-1.15-0.63-2.05-1.56-2.68-2.78
			c-0.64-1.22-0.96-2.72-0.96-4.5c0-1.73,0.29-3.24,0.88-4.5c0.58-1.27,1.4-2.25,2.47-2.93
			C459.8,184.65,461.05,184.31,462.49,184.31z M462.46,186.31c-1.3,0-2.34,0.43-3.12,1.28c-0.77,0.85-1.23,2.04-1.38,3.57h8.52
			c-0.01-0.96-0.16-1.8-0.45-2.53s-0.73-1.3-1.31-1.7C464.13,186.51,463.38,186.31,462.46,186.31z"/>
		<path class="st1" d="M501.53,200.71v-21.48h2.5v19.25h9.54v2.23H501.53z"/>
		<path class="st1" d="M528.2,178.58c0.4,0,0.75,0.13,1.04,0.39c0.29,0.26,0.43,0.66,0.43,1.21c0,0.54-0.15,0.94-0.43,1.2
			c-0.29,0.26-0.63,0.4-1.04,0.4c-0.42,0-0.77-0.13-1.05-0.4c-0.28-0.26-0.42-0.67-0.42-1.2c0-0.55,0.14-0.95,0.42-1.21
			C527.43,178.71,527.78,178.58,528.2,178.58z M529.39,184.6v16.1h-2.44v-16.1H529.39z"/>
		<path class="st1" d="M562.12,184.31c1.77,0,3.11,0.46,4.01,1.39c0.9,0.93,1.35,2.41,1.35,4.46v10.55h-2.41v-10.43
			c0-1.3-0.28-2.28-0.85-2.93c-0.56-0.65-1.4-0.98-2.5-0.98c-1.56,0-2.69,0.45-3.39,1.35c-0.71,0.9-1.06,2.23-1.06,3.98v9.01h-2.42
			v-10.43c0-0.87-0.12-1.6-0.38-2.17c-0.25-0.58-0.62-1.01-1.12-1.3c-0.49-0.29-1.12-0.43-1.87-0.43c-1.07,0-1.92,0.22-2.57,0.66
			c-0.65,0.44-1.12,1.09-1.4,1.96c-0.29,0.87-0.43,1.93-0.43,3.2v8.52h-2.44v-16.1h1.97l0.37,2.28h0.13
			c0.32-0.56,0.73-1.03,1.22-1.41c0.49-0.38,1.04-0.67,1.65-0.87c0.61-0.2,1.25-0.29,1.94-0.29c1.22,0,2.25,0.23,3.08,0.68
			c0.83,0.46,1.43,1.15,1.8,2.08h0.13c0.53-0.93,1.25-1.62,2.17-2.08C560.01,184.54,561.02,184.31,562.12,184.31z"/>
		<path class="st1" d="M583.82,178.58c0.4,0,0.75,0.13,1.04,0.39c0.29,0.26,0.43,0.66,0.43,1.21c0,0.54-0.15,0.94-0.43,1.2
			c-0.29,0.26-0.63,0.4-1.04,0.4c-0.42,0-0.77-0.13-1.05-0.4c-0.28-0.26-0.42-0.67-0.42-1.2c0-0.55,0.14-0.95,0.42-1.21
			C583.05,178.71,583.4,178.58,583.82,178.58z M585.01,184.6v16.1h-2.44v-16.1H585.01z"/>
		<path class="st1" d="M605.45,199c0.4,0,0.81-0.03,1.23-0.1c0.42-0.07,0.76-0.15,1.03-0.25v1.9c-0.28,0.13-0.68,0.24-1.18,0.32
			c-0.5,0.09-1,0.13-1.48,0.13c-0.85,0-1.63-0.15-2.32-0.45c-0.7-0.3-1.25-0.81-1.67-1.52c-0.42-0.72-0.62-1.7-0.62-2.97v-9.55
			h-2.29v-1.19l2.31-0.96l0.97-3.5h1.47v3.73h4.72v1.91h-4.72v9.48c0,1.01,0.23,1.76,0.7,2.26C604.06,198.75,604.68,199,605.45,199z
			"/>
		<path class="st1" d="M627.26,184.31c1.37,0,2.55,0.3,3.53,0.91c0.98,0.61,1.73,1.46,2.25,2.55c0.52,1.09,0.78,2.37,0.78,3.83v1.51
			h-11.12c0.03,1.89,0.5,3.33,1.41,4.32c0.91,0.99,2.19,1.48,3.85,1.48c1.02,0,1.92-0.09,2.7-0.28c0.78-0.19,1.6-0.46,2.44-0.82
			v2.15c-0.81,0.36-1.62,0.63-2.42,0.79c-0.8,0.17-1.74,0.25-2.83,0.25c-1.55,0-2.9-0.32-4.05-0.95c-1.15-0.63-2.05-1.56-2.68-2.78
			c-0.64-1.22-0.96-2.72-0.96-4.5c0-1.73,0.29-3.24,0.88-4.5c0.58-1.27,1.4-2.25,2.47-2.93
			C624.57,184.65,625.82,184.31,627.26,184.31z M627.23,186.31c-1.3,0-2.34,0.43-3.12,1.28c-0.77,0.85-1.23,2.04-1.38,3.57h8.52
			c-0.01-0.96-0.16-1.8-0.45-2.53s-0.73-1.3-1.31-1.7C628.91,186.51,628.15,186.31,627.23,186.31z"/>
		<path class="st1" d="M653.77,201c-2.04,0-3.65-0.7-4.84-2.09c-1.19-1.39-1.79-3.46-1.79-6.2c0-2.77,0.61-4.87,1.82-6.28
			c1.21-1.42,2.83-2.12,4.85-2.12c0.85,0,1.6,0.11,2.23,0.34c0.64,0.23,1.19,0.53,1.65,0.9c0.46,0.38,0.85,0.81,1.16,1.29h0.18
			c-0.04-0.3-0.08-0.72-0.12-1.25c-0.04-0.53-0.06-0.96-0.06-1.29v-6.45h2.44v22.86h-1.97l-0.37-2.29h-0.1
			c-0.3,0.48-0.69,0.92-1.15,1.31c-0.47,0.39-1.02,0.7-1.66,0.93C655.4,200.88,654.64,201,653.77,201z M654.15,198.97
			c1.72,0,2.94-0.49,3.66-1.47c0.72-0.98,1.07-2.43,1.07-4.36v-0.44c0-2.05-0.34-3.62-1.02-4.72c-0.68-1.1-1.92-1.65-3.71-1.65
			c-1.5,0-2.62,0.58-3.36,1.73c-0.74,1.15-1.12,2.72-1.12,4.71c0,1.98,0.37,3.51,1.11,4.58
			C651.52,198.43,652.64,198.97,654.15,198.97z"/>
	</g>
	<g>
		<g>
			<path class="st2" d="M41.85,33.08l11.67,8.56l0.17,0.12l-0.02,0.26c-0.13,1.67-0.41,3.31-0.66,4.96
				c-0.25,1.65-0.51,3.29-0.78,4.94c-0.55,3.29-1.03,6.59-1.67,9.86l0.02-0.18c-0.12,4.56-0.28,9.13-0.45,13.69
				c-0.17,4.56-0.3,9.13-0.38,13.69c-0.09,4.57-0.08,9.13-0.23,13.7c-0.04,2.28-0.02,4.57,0.14,6.85c0.15,2.29,0.36,4.57,0.78,6.87
				l-4.27-0.09c0.53-2.27,0.84-4.55,1.08-6.83c0.26-2.28,0.38-4.56,0.44-6.84c0.05-4.57,0.26-9.13,0.38-13.69
				c0.13-4.56,0.19-9.13,0.22-13.7c0.03-4.57,0.07-9.13,0.15-13.7l0-0.09l0.02-0.09c0.62-3.27,1.39-6.52,2.11-9.77
				c0.36-1.63,0.73-3.25,1.11-4.88c0.38-1.62,0.73-3.25,1.23-4.85l0.14,0.38L41.7,33.28L41.85,33.08z"/>
		</g>
		<g>
			<path class="st2" d="M41.58,98.7c1.32,1,2.63,2.02,3.92,3.06c0.65,0.51,1.29,1.04,1.92,1.58c0.61,0.56,1.25,1.09,1.58,1.96
				l-0.06,0.07c-0.9-0.23-1.5-0.8-2.13-1.34c-0.61-0.56-1.21-1.13-1.79-1.72c-1.18-1.16-2.35-2.34-3.5-3.54L41.58,98.7z"/>
		</g>
		<g>
			<path class="st2" d="M53.14,41.4c1.79-0.66,3.51-1.71,5.17-2.77c1.68-1.06,3.3-2.21,4.92-3.37c3.22-2.34,6.36-4.81,9.44-7.34
				c6.16-5.07,12.08-10.43,17.75-16.05c-5.56,5.72-11.39,11.2-17.46,16.39c-3.04,2.6-6.13,5.13-9.32,7.54
				c-1.6,1.19-3.22,2.38-4.89,3.49c-1.68,1.11-3.36,2.2-5.31,2.96L53.14,41.4z"/>
		</g>
		<g>
			<g>
				<g>
					<path class="st3" d="M43.15,15.5c0.07-0.12,0.09-0.12,0.16,0c0.88,1.38,1.64,2.81,2.21,4.35c0.52,1.41,0.88,2.85,1.06,4.34
						c0.12,0.97,0.17,1.95,0.15,2.93c-0.02,1.18-0.13,2.34-0.32,3.5c-0.27,1.69-0.71,3.34-1.24,4.97c-0.02,0.06-0.02,0.1,0.04,0.15
						c1.22,1.01,2.49,1.95,3.8,2.83c0.21,0.14,0.43,0.28,0.64,0.43c0.02,0.02,0.03,0.06,0.05,0.09c-0.03,0-0.07-0.01-0.1-0.01
						c-0.01,0-0.02-0.01-0.04-0.02c-0.66-0.45-1.33-0.88-1.97-1.35c-0.82-0.6-1.61-1.24-2.42-1.87c-0.05-0.04-0.1-0.06-0.15-0.02
						c-0.02,0.02-0.05,0.03-0.07,0.04c-1.95,0.96-4.01,1.49-6.16,1.72c-1.85,0.2-3.7,0.17-5.54-0.08c-1.44-0.19-2.86-0.51-4.22-1.04
						c-0.56-0.22-1.1-0.48-1.59-0.82c-0.12-0.08-0.12-0.09-0.02-0.18c0.29-0.28,0.58-0.56,0.86-0.85c0.03-0.03,0.05-0.05,0.08-0.09
						c-0.05-0.02-0.08-0.03-0.12-0.05c-0.43-0.18-0.88-0.35-1.3-0.56c-0.92-0.44-1.57-1.12-1.88-2.11
						c-0.02-0.06-0.07-0.13-0.13-0.16c-0.52-0.33-1.04-0.65-1.56-0.98c-0.43-0.28-0.83-0.6-1.18-0.97
						c-0.56-0.59-0.94-1.29-1.21-2.05c-0.07-0.19-0.07-0.15,0.08-0.27c0.19-0.14,0.38-0.27,0.6-0.43c-0.05-0.03-0.09-0.05-0.11-0.07
						c-0.36-0.29-0.71-0.59-1.07-0.89c-0.56-0.47-1.05-1-1.42-1.63c-0.29-0.5-0.5-1.04-0.67-1.59c-0.06-0.21-0.07-0.21,0.15-0.24
						c0.14-0.02,0.27-0.04,0.43-0.07c-0.06-0.05-0.09-0.08-0.12-0.11c-0.21-0.16-0.43-0.32-0.64-0.48c-0.33-0.24-0.65-0.5-0.9-0.83
						c-0.34-0.45-0.53-0.96-0.66-1.49c-0.05-0.18-0.05-0.18,0.15-0.2c0.2-0.01,0.39-0.02,0.59-0.03c0-0.02,0-0.03-0.01-0.03
						c-0.01-0.02-0.02-0.03-0.04-0.05c-0.46-0.58-0.82-1.22-1.1-1.91c-0.38-0.92-0.62-1.88-0.78-2.86c-0.05-0.29-0.05-0.3,0.26-0.31
						c0.15-0.01,0.3-0.02,0.47-0.03c-0.02-0.03-0.03-0.05-0.04-0.06c-0.4-0.47-0.7-1-0.94-1.57c-0.58-1.32-0.92-2.71-1.23-4.1
						c-0.02-0.07,0-0.11,0.08-0.1c0.12,0,0.24,0,0.35,0c0.21,0,0.43,0,0.65,0c-0.05-0.23-0.11-0.44-0.16-0.65
						c-0.14-0.61-0.18-1.22-0.12-1.84c0.07-0.8,0.28-1.57,0.61-2.3c0.35-0.77,0.73-1.53,1.1-2.29c0.02-0.04,0.07-0.07,0.12-0.08
						c0.76-0.09,1.52-0.11,2.29-0.03c0.83,0.08,1.63,0.29,2.4,0.61c0.03,0.01,0.06,0.03,0.1,0.04c0.09-0.23,0.18-0.45,0.26-0.67
						c0.03-0.08,0.07-0.11,0.15-0.07c0.86,0.34,1.57,0.87,2.07,1.66c0.09,0.15,0.18,0.3,0.28,0.46c0.02-0.05,0.03-0.09,0.04-0.12
						c0.07-0.24,0.13-0.49,0.2-0.73c0.03-0.12,0.05-0.13,0.15-0.07c0.4,0.24,0.8,0.47,1.19,0.74c0.47,0.33,0.89,0.72,1.22,1.2
						c0.08,0.13,0.16,0.26,0.25,0.39c0.02-0.02,0.03-0.04,0.04-0.06c0.13-0.22,0.26-0.44,0.39-0.67c0.04-0.07,0.08-0.08,0.16-0.05
						c0.54,0.25,1.07,0.51,1.57,0.84c0.81,0.52,1.5,1.16,1.99,1.99c0.01,0.01,0.02,0.02,0.04,0.04c0.21-0.26,0.42-0.51,0.63-0.76
						c0.08-0.09,0.08-0.09,0.16,0c0.22,0.27,0.45,0.53,0.67,0.8c1.19,1.39,2.45,2.7,3.77,3.97c0.23,0.22,0.46,0.44,0.7,0.67
						c0.04-0.03,0.07-0.06,0.1-0.08c0.31-0.27,0.63-0.54,0.94-0.81c0.07-0.06,0.12-0.07,0.18,0.01c0.88,0.96,1.67,2,2.37,3.1
						c0.55,0.87,1.09,1.76,1.64,2.64c0.03,0.04,0.05,0.09,0.09,0.15C42.82,16.02,42.99,15.76,43.15,15.5z"/>
				</g>
				<g>
					<path class="st4" d="M43.12,15.48c0.02-0.03,0.03-0.06,0.07-0.09c0.08-0.03,0.1,0.04,0.12,0.06l0.11,0.18l0.22,0.36l0.43,0.73
						c0.28,0.49,0.54,0.99,0.78,1.5c0.49,1.02,0.89,2.07,1.19,3.16c0.65,2.17,0.72,4.45,0.69,6.69c-0.13,2.25-0.58,4.47-1.21,6.63
						l-0.25,0.81c-0.06,0.19-0.07,0.13,0.08,0.25L45.71,36l1.35,1l2.74,2.03l0.3,0.22l-0.41-0.05l-0.11-0.01
						c-0.08-0.03-0.11-0.06-0.13-0.07L49.29,39l-0.33-0.22l-0.66-0.45c-0.44-0.3-0.89-0.6-1.3-0.93l-1.27-0.97l-0.63-0.48
						c-0.02-0.02-0.03-0.01,0.01-0.01c0.03,0,0.04-0.02-0.02,0.02l-0.2,0.1l-0.36,0.17c-1.96,0.89-4.08,1.38-6.21,1.57
						c-2.14,0.19-4.3,0.07-6.41-0.33c-1.05-0.2-2.1-0.49-3.1-0.89c-0.5-0.2-0.99-0.45-1.45-0.75c-0.03-0.02-0.06-0.04-0.1-0.08
						c-0.02-0.02-0.09-0.06-0.09-0.2c0.01-0.12,0.06-0.14,0.07-0.16l0.15-0.16l0.28-0.28l0.56-0.56l0.07,0.33l-1.34-0.56
						c-0.45-0.2-0.89-0.48-1.24-0.84c-0.36-0.36-0.63-0.81-0.8-1.29c-0.05-0.15-0.05-0.16-0.1-0.19l-0.3-0.19l-0.61-0.38
						c-0.81-0.48-1.67-1.06-2.26-1.88c-0.3-0.4-0.54-0.84-0.73-1.3l-0.14-0.35l-0.03-0.09c0-0.03-0.07-0.07,0-0.27
						c0.09-0.14,0.12-0.11,0.14-0.14l0.07-0.05l0.58-0.42l0.02,0.39c-0.48-0.34-0.82-0.67-1.25-1c-0.41-0.34-0.8-0.73-1.12-1.17
						c-0.33-0.44-0.58-0.93-0.78-1.42c-0.1-0.25-0.19-0.5-0.27-0.76c-0.01-0.04-0.02-0.07-0.03-0.14c0-0.04-0.02-0.11,0.05-0.21
						c0.07-0.1,0.13-0.11,0.17-0.13c0.13-0.04,0.17-0.03,0.24-0.05l0.38-0.06l-0.12,0.44c-0.57-0.48-1.33-0.88-1.83-1.62
						c-0.24-0.36-0.41-0.76-0.52-1.15l-0.08-0.3l-0.02-0.1c0-0.03-0.01-0.06,0-0.12c0-0.06,0.07-0.17,0.14-0.21
						c0.22-0.1,0.21-0.05,0.28-0.07l0.6-0.04l-0.25,0.31c0.05,0.12,0.03,0.05,0.01,0.04l-0.06-0.08l-0.12-0.16l-0.23-0.34
						c-0.15-0.23-0.28-0.46-0.41-0.7c-0.25-0.48-0.45-0.98-0.62-1.49c-0.17-0.51-0.3-1.03-0.41-1.55l-0.08-0.39
						c-0.02-0.16-0.06-0.19-0.05-0.49c0-0.12,0.18-0.29,0.26-0.29c0.08-0.02,0.12-0.03,0.16-0.03l0.21-0.01l0.39-0.02l-0.23,0.45
						c-0.37-0.44-0.74-1.04-0.98-1.61c-0.26-0.57-0.47-1.16-0.65-1.76c-0.18-0.6-0.34-1.2-0.48-1.8l-0.1-0.45l-0.05-0.24
						c0-0.04-0.02-0.11,0.03-0.24C13.79,8.05,13.94,8,13.99,8c0.14-0.01,0.11,0,0.17,0l0.91,0l-0.29,0.37
						c-0.29-0.99-0.41-2.15-0.21-3.21c0.09-0.53,0.25-1.06,0.46-1.56c0.22-0.49,0.45-0.95,0.67-1.42l0.34-0.71l0.17-0.35
						c-0.01,0.01,0.08-0.16,0.15-0.19c0.05-0.04,0.17-0.09,0.24-0.09l0.2-0.02c0.53-0.05,1.07-0.07,1.6-0.05
						c1.07,0.04,2.15,0.29,3.13,0.72l-0.39,0.17l0.19-0.48l0.05-0.12c0.02-0.04,0.01-0.06,0.09-0.19c0.03-0.06,0.15-0.15,0.25-0.15
						c0.1-0.01,0.15,0.01,0.2,0.03l0.14,0.06C22.38,0.94,22.7,1.12,23,1.33c0.3,0.22,0.57,0.47,0.81,0.76
						C24.05,2.38,24.22,2.7,24.4,3l-0.48,0.06l0.16-0.56l0.08-0.28l0.03-0.1C24.2,2.09,24.21,2.06,24.26,2
						c0.05-0.07,0.2-0.1,0.25-0.08c0.18,0.05,0.16,0.08,0.22,0.1l1,0.63c0.34,0.21,0.66,0.48,0.94,0.78
						c0.29,0.3,0.51,0.65,0.71,0.99l-0.37-0.01c0.11-0.16,0.24-0.39,0.36-0.59c0.04-0.06,0.03-0.07,0.13-0.2
						c0.05-0.07,0.22-0.11,0.28-0.08c0.07,0.02,0.1,0.04,0.12,0.05l0.32,0.17l1.27,0.7c0.4,0.27,0.79,0.57,1.14,0.92
						c0.34,0.33,0.67,0.79,0.88,1.13l-0.26,0.01l0.35-0.42l0.17-0.21l0.09-0.1c0.05-0.04,0.01-0.06,0.17-0.15
						c0.18-0.03,0.21,0.07,0.23,0.07l0.05,0.06l0.09,0.1l0.17,0.21l0.35,0.42L34.4,8.1c1,1.04,1.94,2.14,2.99,3.13l-0.14,0
						l0.84-0.71l0.21-0.18c0.03-0.03,0.11-0.1,0.22-0.06c0.08,0.04,0.1,0.08,0.13,0.12l0.36,0.41c0.48,0.56,0.93,1.14,1.34,1.74
						c0.83,1.21,1.54,2.49,2.32,3.73l-0.06,0L43.12,15.48z M43.17,15.51l-0.49,0.82l-0.03,0.05l-0.03-0.05
						c-0.8-1.23-1.53-2.5-2.38-3.69c-0.42-0.59-0.88-1.16-1.36-1.71l-0.37-0.41c-0.03-0.03-0.07-0.07-0.07-0.07
						c0.02,0,0.01,0-0.02,0.03l-0.21,0.18l-0.83,0.72l-0.07,0.06l-0.07-0.07c-1.07-0.97-2.03-2.07-3.05-3.1l-1.51-1.57L32.34,6.3
						L32.16,6.1l-0.09-0.1l-0.04-0.04c-0.01-0.02-0.02,0.03,0.11,0.02c0.09-0.05,0,0.02-0.01,0.04l-0.09,0.11l-0.17,0.21l-0.34,0.42
						l-0.15,0.18l-0.12-0.17c-0.31-0.45-0.54-0.77-0.89-1.11c-0.33-0.32-0.7-0.6-1.09-0.86l-1.24-0.65l-0.31-0.16
						c-0.03-0.02-0.05-0.03-0.04-0.02c0.01,0.01,0.11-0.01,0.12-0.04c0.03-0.04-0.04,0.07-0.06,0.11c-0.13,0.21-0.22,0.4-0.38,0.64
						l-0.18,0.28l-0.19-0.29c-0.21-0.33-0.41-0.64-0.67-0.9c-0.26-0.26-0.55-0.5-0.88-0.7l-0.99-0.6c-0.03-0.02-0.13-0.06-0.04-0.03
						c0.03,0.01,0.15-0.01,0.19-0.06c0.04-0.04,0.04-0.05,0.04-0.05l-0.01,0.04l-0.07,0.28l-0.15,0.57l-0.16,0.58l-0.32-0.52
						c-0.18-0.3-0.35-0.59-0.55-0.83c-0.21-0.25-0.45-0.46-0.71-0.65c-0.26-0.18-0.55-0.34-0.86-0.46l-0.1-0.04
						c0,0,0.01,0.01,0.07,0c0.06,0,0.14-0.07,0.15-0.09c0.03-0.05,0,0.01-0.01,0.05l-0.05,0.12l-0.19,0.49l-0.11,0.29L21.3,2.03
						c-0.94-0.39-1.92-0.63-2.93-0.66c-0.5-0.02-1.01-0.01-1.51,0.05l-0.19,0.02c0,0,0.06-0.02,0.06-0.02c0.01,0,0.07-0.1,0.03-0.03
						l-0.17,0.35l-0.34,0.7c-0.46,0.94-0.94,1.84-1.08,2.83c-0.18,1-0.09,1.96,0.2,2.96l0.11,0.37l-0.4,0l-0.93,0
						c-0.02,0-0.13,0-0.06,0c0.02,0,0.13-0.03,0.18-0.14c0.04-0.09,0.02-0.12,0.02-0.12l0.05,0.2l0.1,0.45
						c0.14,0.59,0.29,1.18,0.47,1.76c0.18,0.58,0.38,1.14,0.62,1.69c0.25,0.56,0.51,1.02,0.93,1.53l0.34,0.42l-0.57,0.03l-0.39,0.02
						l-0.19,0.01c-0.03,0-0.05,0.01-0.03,0c0.01,0.02,0.14-0.1,0.13-0.15l0.12,0.66c0.1,0.5,0.23,1,0.38,1.49
						c0.16,0.49,0.34,0.96,0.57,1.41c0.11,0.23,0.24,0.45,0.38,0.66l0.21,0.31l0.11,0.15l0.06,0.07c0.02,0.04,0.05,0.02,0.1,0.21
						l0.07,0.29l-0.32,0.02l-0.59,0.03c-0.03-0.01-0.14,0.03-0.02-0.02c0.05-0.02,0.1-0.11,0.1-0.15c0.01-0.04,0-0.04,0-0.04
						l0.01,0.05l0.07,0.28c0.1,0.36,0.25,0.71,0.45,1.01c0.39,0.61,1.08,0.99,1.72,1.53l0.42,0.36l-0.55,0.09l-0.39,0.06l-0.15,0.02
						c0.01,0,0.04-0.01,0.09-0.08c0.04-0.07,0.03-0.11,0.03-0.12c0-0.01,0,0.02,0.01,0.05c0.07,0.24,0.15,0.48,0.25,0.72
						c0.19,0.47,0.41,0.92,0.71,1.32c0.29,0.4,0.65,0.76,1.03,1.09c0.39,0.32,0.82,0.7,1.18,0.97l0.28,0.2l-0.26,0.19l-0.58,0.42
						l-0.08,0.06c-0.02,0.01-0.05,0.06,0.01-0.03c0.04-0.14,0-0.12,0.02-0.09l0.03,0.08l0.13,0.33c0.18,0.43,0.4,0.84,0.67,1.21
						c0.54,0.76,1.3,1.28,2.13,1.78l0.61,0.39l0.3,0.19c0.18,0.09,0.25,0.34,0.27,0.41c0.15,0.43,0.39,0.82,0.7,1.14
						c0.61,0.67,1.57,0.93,2.43,1.33l0.28,0.13l-0.21,0.2l-0.57,0.57l-0.29,0.28l-0.13,0.13c-0.01,0,0.01,0.01,0.02-0.08
						c-0.01-0.1-0.05-0.11-0.04-0.11l0.06,0.04c0.43,0.29,0.89,0.53,1.37,0.72c0.97,0.4,1.99,0.68,3.02,0.89
						c2.07,0.4,4.2,0.53,6.31,0.36c2.1-0.17,4.19-0.64,6.12-1.51l0.36-0.17l0.16-0.08c0.01,0.01,0.06-0.06,0.17-0.06
						c0.1,0,0.15,0.05,0.18,0.07l0.63,0.49l1.26,0.98c0.41,0.34,0.85,0.64,1.29,0.94l0.65,0.45l0.33,0.23l0.16,0.11
						c0.03,0.02,0.06,0.03,0.04,0.04l0.09,0.01l-0.11,0.17c-0.01-0.01-0.01-0.03-0.02-0.05l-0.09-0.06l-0.17-0.12l-0.35-0.23
						l-0.68-0.51l-1.35-1.02l-1.35-1.02l-0.34-0.25c-0.05-0.06-0.11-0.05-0.18-0.18c-0.02-0.15,0.03-0.18,0.05-0.26l0.26-0.8
						c0.66-2.14,1.12-4.35,1.26-6.59c0.03-2.23-0.03-4.5-0.66-6.66c-0.3-1.08-0.7-2.13-1.18-3.15c-0.24-0.51-0.5-1.01-0.77-1.49
						l-0.43-0.73l-0.22-0.36l-0.11-0.18c-0.02-0.03-0.05-0.05-0.04-0.04C43.21,15.45,43.19,15.48,43.17,15.51z"/>
				</g>
			</g>
			<path class="st5" d="M41.86,32.73c0.09,0.03,0.09-0.05,0.1-0.09c0.14-0.49,0.29-0.98,0.42-1.47c0.31-1.19,0.49-2.39,0.58-3.61
				c0.09-1.28,0.04-2.55-0.12-3.82c-0.21-1.61-0.61-3.17-1.16-4.69c-0.01-0.04-0.05-0.07-0.08-0.1c0,0.04-0.01,0.09,0,0.13
				c0.37,1.04,0.68,2.1,0.9,3.18c0.23,1.1,0.36,2.21,0.4,3.34c0.07,2.3-0.25,4.54-0.94,6.74c-0.03,0.1-0.07,0.2-0.09,0.3
				C41.85,32.66,41.86,32.7,41.86,32.73L41.86,32.73z"/>
			<path class="st5" d="M37.12,22.14c-0.12-2-0.51-3.94-1.12-5.84c-0.42-1.3-0.93-2.56-1.55-3.79c-0.02-0.04-0.07-0.07-0.1-0.11
				c0.01,0.05,0,0.1,0.02,0.15c0.88,1.77,1.57,3.62,2.04,5.54c0.37,1.53,0.6,3.08,0.64,4.65c0.04,1.49-0.08,2.96-0.41,4.41
				c0,0.02-0.01,0.04-0.01,0.05c0.01,0.03,0.02,0.05,0.03,0.08c0.02-0.02,0.05-0.04,0.06-0.06c0.04-0.15,0.07-0.3,0.1-0.46
				c0.29-1.47,0.38-2.96,0.31-4.46C37.13,22.25,37.12,22.2,37.12,22.14z"/>
			<path class="st5" d="M30.74,17.49c-0.06-1.43-0.26-2.55-0.58-3.64c-0.47-1.57-1.19-3.03-2.07-4.42c-0.51-0.8-1.06-1.57-1.65-2.32
				c-0.02-0.02-0.03-0.04-0.05-0.05c-0.02-0.01-0.05-0.01-0.06,0c-0.01,0-0.01,0.04,0,0.06c0.01,0.02,0.03,0.04,0.04,0.06
				c0.89,1.14,1.71,2.32,2.39,3.6c0.66,1.23,1.18,2.52,1.51,3.88c0.19,0.8,0.31,1.61,0.35,2.43c0.05,0.92,0,1.84-0.14,2.75
				c0,0.02-0.01,0.04-0.01,0.06c0.01,0.03,0.02,0.07,0.03,0.1c0.02-0.03,0.05-0.05,0.06-0.08c0.02-0.13,0.04-0.25,0.06-0.38
				C30.72,18.76,30.75,17.97,30.74,17.49z"/>
			<path class="st5" d="M35.59,30.62c0.77-0.03,1.53-0.1,2.29-0.23c0.32-0.06,0.65-0.13,0.97-0.19c0.02,0,0.04,0,0.05-0.01
				c0.03-0.02,0.05-0.04,0.07-0.06c-0.03-0.01-0.07-0.03-0.1-0.03c-0.24,0.05-0.48,0.1-0.71,0.15c-1.15,0.21-2.31,0.31-3.48,0.3
				c-1.19,0-2.37-0.11-3.54-0.3c-1.69-0.29-3.32-0.76-4.89-1.44c-0.1-0.04-0.2-0.09-0.31-0.13c-0.03-0.01-0.06,0-0.09,0
				c0.02,0.03,0.03,0.07,0.06,0.08c0.39,0.17,0.79,0.33,1.18,0.49c1.6,0.61,3.25,1.01,4.94,1.23c1.16,0.15,2.33,0.21,3.5,0.15
				C35.56,30.62,35.58,30.62,35.59,30.62z"/>
			<path class="st5" d="M37.25,35.57c1.48-0.08,2.89-0.34,4.25-0.81c0.49-0.17,0.97-0.39,1.46-0.58c0.02-0.01,0.04-0.01,0.05-0.03
				c0.01-0.02,0.02-0.04,0.03-0.07c-0.02-0.01-0.04-0.02-0.06-0.01c-0.02,0-0.04,0.02-0.07,0.03c-1.13,0.51-2.3,0.9-3.52,1.13
				c-1.1,0.21-2.22,0.3-3.34,0.28c-1.58-0.02-3.14-0.24-4.68-0.57c-0.31-0.07-0.62-0.14-0.92-0.21c-0.02-0.01-0.05-0.02-0.07-0.01
				c-0.02,0-0.04,0.02-0.06,0.03c0.01,0.02,0.02,0.04,0.04,0.05c0.02,0.01,0.05,0.01,0.07,0.02c1.33,0.33,2.67,0.58,4.03,0.7
				C35.4,35.6,36.34,35.63,37.25,35.57z"/>
			<path class="st5" d="M45.16,35.7c-0.03-0.02-0.16-0.14-0.18-0.16c-1.05-0.87-2.07-1.79-3.06-2.72c-0.03-0.03-0.04-0.06-0.07-0.09
				l0,0c-0.08-0.06-0.16-0.12-0.23-0.19c-2.31-2.22-4.47-4.58-6.57-7c-1.93-2.24-3.8-4.52-5.65-6.83c-1.77-2.2-3.54-4.4-5.31-6.61
				c-0.2-0.25-0.4-0.49-0.59-0.72c0.02-0.05,0.04-0.09,0.05-0.13c0.1-0.6,0.14-1.2,0.13-1.81c-0.02-0.99-0.21-1.95-0.56-2.87
				c-0.39-1.03-0.97-1.96-1.64-2.83c-0.02-0.02-0.03-0.04-0.05-0.05c-0.02-0.01-0.04-0.01-0.06-0.01c0,0.02-0.01,0.05,0,0.07
				c0,0.02,0.02,0.03,0.03,0.04c0.26,0.37,0.53,0.72,0.78,1.1c0.54,0.83,0.94,1.73,1.18,2.7c0.26,1.06,0.31,2.14,0.18,3.22
				c-0.02,0.16-0.05,0.32-0.07,0.51c-0.04-0.04-0.05-0.06-0.07-0.08c-1.07-1.27-2.13-2.55-3.2-3.82c-0.15-0.18-0.3-0.35-0.45-0.52
				c-0.02-0.02-0.06-0.02-0.09-0.03c0.01,0.03,0.01,0.06,0.02,0.08C19.68,6.97,19.7,6.98,19.72,7c0.87,1.03,1.76,2.05,2.61,3.09
				c1.86,2.28,3.7,4.57,5.55,6.85c0.02,0.03,0.04,0.05,0.07,0.09c-0.04,0-0.06,0-0.08,0c-0.37,0-0.75,0.01-1.12-0.01
				c-0.96-0.05-1.89-0.24-2.79-0.56c-1.4-0.49-2.65-1.25-3.78-2.21c-1.23-1.04-2.27-2.24-3.13-3.59c-0.01-0.02-0.03-0.05-0.05-0.07
				c-0.01-0.01-0.04-0.02-0.05-0.01c-0.01,0.01-0.02,0.04-0.02,0.05c0.01,0.03,0.03,0.06,0.05,0.08c0.23,0.34,0.46,0.69,0.71,1.02
				c1.12,1.49,2.45,2.76,4.04,3.75c1.89,1.17,3.94,1.75,6.18,1.64c0.09,0,0.15,0.02,0.21,0.09c2.11,2.64,4.23,5.27,6.43,7.83
				c0.02,0.02,0.03,0.05,0.06,0.08c-0.05,0.01-0.08,0.02-0.11,0.02c-0.59,0.02-1.19,0.06-1.78,0.06c-0.75,0-1.49-0.11-2.22-0.25
				c-1.7-0.34-3.3-0.94-4.83-1.73c-2.37-1.22-4.48-2.8-6.4-4.65c-0.02-0.02-0.04-0.04-0.06-0.05c-0.01-0.01-0.04-0.01-0.06,0.01
				c-0.01,0.01-0.01,0.04,0,0.05c0.01,0.02,0.04,0.04,0.06,0.06c0.3,0.28,0.6,0.56,0.9,0.84c1.36,1.21,2.81,2.28,4.38,3.2
				c1.45,0.85,2.97,1.55,4.58,2.02c1.5,0.44,3.03,0.67,4.6,0.6c0.34-0.01,0.68-0.05,1.03-0.07c3.2,3.71,6.61,7.36,10.41,10.52
				L45.16,35.7z"/>
		</g>
		<g>
			<path class="st2" d="M48.38,98.81c1.32-1,2.69-1.92,4.07-2.83c0.69-0.45,1.39-0.89,2.09-1.33c0.7-0.44,1.39-0.89,2.31-1.02
				c-0.44,0.81-1.09,1.32-1.75,1.82c-0.65,0.51-1.3,1.02-1.96,1.52c-1.33,0.98-2.66,1.96-4.05,2.86L48.38,98.81z"/>
		</g>
		<g>
			<g>
				<path class="st3" d="M61.71,67.32c0.05-0.08,0.09-0.13,0.13-0.19c0.74-1.13,1.48-2.26,2.24-3.38c0.96-1.41,2.02-2.73,3.21-3.96
					c0.09-0.1,0.15-0.09,0.24,0c0.4,0.37,0.8,0.73,1.2,1.09c0.04,0.04,0.08,0.07,0.13,0.11c0.32-0.28,0.63-0.56,0.93-0.84
					c1.77-1.6,3.46-3.27,5.07-5.04c0.3-0.34,0.6-0.68,0.91-1.02c0.11-0.12,0.12-0.12,0.21,0c0.26,0.34,0.52,0.67,0.79,1.02
					c0.02-0.02,0.04-0.03,0.05-0.05c0.68-1.07,1.61-1.87,2.68-2.53c0.66-0.4,1.36-0.74,2.08-1.04c0.1-0.04,0.15-0.03,0.21,0.07
					c0.16,0.3,0.32,0.59,0.48,0.88c0.01,0.02,0.03,0.04,0.05,0.07c0.12-0.17,0.22-0.34,0.34-0.5c0.44-0.62,1-1.12,1.63-1.52
					c0.51-0.33,1.05-0.61,1.58-0.92c0.14-0.08,0.16-0.07,0.2,0.09c0.08,0.32,0.15,0.64,0.23,0.97c0.01,0.05,0.03,0.09,0.04,0.16
					c0.13-0.21,0.25-0.4,0.38-0.59c0.68-1.01,1.63-1.67,2.77-2.08c0.11-0.04,0.16-0.01,0.2,0.1c0.1,0.29,0.2,0.58,0.31,0.88
					c0.05-0.02,0.09-0.04,0.13-0.05c1.02-0.39,2.07-0.63,3.16-0.71c1-0.07,1.99-0.02,2.99,0.13c0.05,0.01,0.13,0.06,0.15,0.11
					c0.46,1.01,0.93,2.01,1.35,3.03c0.4,0.96,0.65,1.97,0.71,3.02c0.05,0.81-0.03,1.61-0.23,2.4c-0.07,0.28-0.15,0.55-0.23,0.84
					c0.29,0.01,0.57,0.02,0.85,0.02c0.15,0,0.31,0.01,0.46,0.01c0.1,0,0.12,0.05,0.1,0.14c-0.46,1.81-0.96,3.61-1.76,5.31
					c-0.34,0.72-0.74,1.41-1.29,2.01c-0.01,0.02-0.02,0.03-0.05,0.08c0.22,0.02,0.42,0.04,0.61,0.05c0.4,0.03,0.4,0.03,0.32,0.42
					c-0.26,1.27-0.6,2.51-1.13,3.7c-0.39,0.88-0.88,1.71-1.51,2.45c-0.02,0.02-0.04,0.04-0.05,0.06c0,0.01,0,0.02-0.01,0.04
					c0.26,0.02,0.51,0.04,0.77,0.07c0.25,0.02,0.25,0.02,0.19,0.26c-0.19,0.7-0.46,1.36-0.92,1.92c-0.34,0.42-0.76,0.75-1.2,1.05
					c-0.29,0.2-0.57,0.4-0.86,0.6c-0.05,0.03-0.09,0.07-0.17,0.13c0.21,0.04,0.39,0.08,0.56,0.11c0.29,0.05,0.28,0.05,0.19,0.32
					c-0.24,0.71-0.54,1.4-0.94,2.05c-0.5,0.82-1.17,1.49-1.92,2.08c-0.48,0.37-0.95,0.75-1.42,1.12c-0.04,0.03-0.09,0.05-0.15,0.09
					c0.28,0.21,0.53,0.4,0.77,0.59c0.2,0.15,0.2,0.1,0.1,0.35c-0.39,0.98-0.91,1.88-1.66,2.63c-0.47,0.48-1.01,0.88-1.58,1.22
					c-0.69,0.41-1.39,0.81-2.07,1.23c-0.07,0.04-0.14,0.13-0.17,0.21c-0.45,1.27-1.32,2.14-2.54,2.68
					c-0.56,0.25-1.15,0.45-1.72,0.68c-0.05,0.02-0.09,0.04-0.16,0.06c0.04,0.04,0.07,0.08,0.1,0.12c0.37,0.38,0.73,0.76,1.1,1.14
					c0.12,0.13,0.12,0.14-0.03,0.24c-0.66,0.42-1.37,0.74-2.11,1c-1.8,0.64-3.65,1-5.54,1.2c-2.42,0.25-4.83,0.23-7.24-0.1
					c-2.8-0.38-5.47-1.16-7.97-2.48c-0.03-0.02-0.07-0.03-0.1-0.05c-0.07-0.06-0.13-0.04-0.2,0.01c-1.07,0.79-2.13,1.59-3.23,2.34
					c-0.85,0.59-1.75,1.13-2.62,1.69c-0.02,0.01-0.03,0.02-0.05,0.03c-0.04,0.01-0.09,0.01-0.13,0.01c0.02-0.04,0.04-0.09,0.07-0.11
					c0.28-0.18,0.57-0.35,0.86-0.53c1.75-1.1,3.44-2.29,5.07-3.55c0.08-0.06,0.08-0.11,0.06-0.19c-0.63-2.14-1.14-4.31-1.43-6.53
					c-0.2-1.52-0.3-3.05-0.29-4.59c0.01-1.28,0.11-2.56,0.31-3.82c0.3-1.94,0.82-3.81,1.55-5.63c0.8-1.98,1.84-3.83,3.05-5.59
					c0.1-0.15,0.12-0.14,0.21,0.01C61.29,66.59,61.49,66.94,61.71,67.32z"/>
				<g>
					<path class="st4" d="M61.71,67.29c0.48-0.77,1.04-1.59,1.55-2.38c0.52-0.8,1.04-1.6,1.62-2.37c0.57-0.77,1.18-1.51,1.83-2.21
						l0.49-0.52c0.04-0.04,0.07-0.09,0.16-0.13c0.1-0.04,0.18,0.03,0.22,0.07l0.27,0.24l1.06,0.96l-0.08,0
						c1.41-1.26,2.79-2.55,4.11-3.9c0.66-0.67,1.31-1.36,1.94-2.06l0.47-0.53l0.24-0.26l0.12-0.13c0.06-0.03,0.02-0.12,0.23-0.13
						c0.4,0.41,0.61,0.76,0.92,1.14l-0.14-0.01c0.33-0.48,0.73-1.01,1.19-1.43c0.46-0.43,0.97-0.81,1.5-1.14l1.68-0.85l0.42-0.21
						c0.04-0.02,0.21-0.12,0.34,0.02c0.08,0.1,0.09,0.15,0.13,0.22c0.15,0.27,0.3,0.56,0.45,0.8l-0.19,0
						c0.28-0.43,0.57-0.86,0.95-1.23c0.37-0.36,0.79-0.69,1.23-0.95l1.33-0.78c0.06-0.03,0.09-0.07,0.22-0.1
						c0.04-0.01,0.12,0.01,0.15,0.05c0.03,0.04,0.04,0.06,0.05,0.08l0.03,0.11l0.09,0.37l0.18,0.74l-0.24-0.04
						c0.24-0.38,0.47-0.78,0.79-1.13c0.31-0.35,0.66-0.66,1.04-0.92c0.38-0.26,0.8-0.47,1.23-0.64L89.44,48
						c0.05-0.04,0.25-0.03,0.31,0.09c0.08,0.17,0.09,0.23,0.14,0.35l0.23,0.64l-0.19-0.09c1.27-0.51,2.65-0.79,4.03-0.8
						c0.69-0.01,1.38,0.03,2.06,0.12l0.26,0.03c0.06,0,0.15,0.04,0.19,0.08c0.06,0.03,0.11,0.14,0.12,0.16l0.21,0.47l0.42,0.93
						c0.27,0.62,0.57,1.23,0.83,1.87c0.25,0.64,0.43,1.32,0.53,2c0.23,1.37,0.04,2.8-0.37,4.09l-0.17-0.23l1.2,0.03
						c0.06,0,0.07,0,0.18,0.01c0.04,0.01,0.15,0.04,0.19,0.14c0.04,0.09,0.02,0.15,0.02,0.18l-0.08,0.3l-0.15,0.58
						c-0.21,0.78-0.43,1.55-0.68,2.32c-0.26,0.77-0.55,1.52-0.9,2.25c-0.34,0.73-0.8,1.46-1.32,2.04l-0.15-0.32l0.51,0.04l0.26,0.02
						c0.05,0.01,0.1,0.01,0.17,0.04c0.07,0.01,0.21,0.14,0.21,0.25c0.01,0.3-0.05,0.39-0.08,0.58l-0.11,0.51
						c-0.16,0.67-0.34,1.34-0.57,1.99c-0.23,0.65-0.5,1.29-0.84,1.91c-0.17,0.31-0.35,0.6-0.55,0.89l-0.31,0.42l-0.16,0.21
						l-0.08,0.1c-0.02,0.02-0.05,0.09-0.01,0.01l-0.2-0.26l0.78,0.06c0.08,0.02,0.1-0.02,0.3,0.07c0.06,0.03,0.12,0.13,0.12,0.19
						c0.01,0.06,0,0.09,0,0.12l-0.03,0.12l-0.11,0.38c-0.16,0.51-0.38,1.01-0.7,1.46c-0.64,0.92-1.64,1.42-2.41,2.04l-0.1-0.41
						l0.5,0.09c0.09,0.02,0.15,0.02,0.29,0.06c0.04,0.02,0.11,0.04,0.17,0.13c0.06,0.1,0.04,0.17,0.04,0.21
						c-0.01,0.08-0.03,0.12-0.04,0.16c-0.11,0.33-0.23,0.65-0.37,0.97c-0.27,0.64-0.61,1.26-1.05,1.82
						c-0.43,0.56-0.94,1.04-1.49,1.48c-0.56,0.42-1.03,0.84-1.65,1.27l0.03-0.42l0.75,0.57l0.09,0.07c0.03,0.04,0.07,0.02,0.16,0.17
						c0.07,0.22-0.01,0.27-0.01,0.31l-0.04,0.11l-0.19,0.44c-0.26,0.59-0.59,1.15-0.99,1.67c-0.79,1.04-1.93,1.77-3,2.37l-0.81,0.48
						l-0.4,0.24c-0.06,0.04-0.06,0.05-0.13,0.25c-0.24,0.62-0.61,1.19-1.09,1.66c-0.48,0.46-1.06,0.82-1.65,1.07l-1.76,0.7
						l0.11-0.46l0.71,0.75l0.36,0.37c0.07,0.07,0.11,0.11,0.2,0.21c0.02,0.03,0.08,0.06,0.09,0.24c-0.01,0.19-0.11,0.25-0.14,0.28
						c-0.07,0.05-0.1,0.07-0.14,0.1c-0.61,0.39-1.26,0.69-1.92,0.94c-1.33,0.49-2.7,0.83-4.09,1.06c-2.77,0.45-5.6,0.53-8.39,0.22
						c-2.79-0.31-5.55-1.03-8.09-2.27l-0.47-0.24c-0.09-0.05-0.13-0.06-0.26-0.14c-0.09-0.06-0.05-0.01,0.04,0
						c0.1,0,0.1-0.03,0.08-0.01L57,93.56l-1.7,1.22c-0.56,0.42-1.15,0.79-1.74,1.16l-0.88,0.56l-0.44,0.28l-0.22,0.14l-0.06,0.04
						c-0.02,0.02-0.12,0.06-0.16,0.07l-0.15,0.01l-0.25-0.4c0,0.03,0.01-0.1,0.16-0.2l0.12-0.07l0.24-0.15l0.49-0.3l0.96-0.61
						c0.63-0.41,1.26-0.83,1.88-1.27c0.62-0.44,1.23-0.88,1.83-1.34l0.23-0.17l0.11-0.09c0.04-0.03,0.08-0.07,0.05-0.03
						c-0.03,0.05-0.01,0.09-0.02,0.05l-0.04-0.14l-0.08-0.28l-0.3-1.11c-0.76-2.95-1.25-6-1.26-9.06c-0.02-3.05,0.45-6.13,1.51-9
						c0.52-1.44,1.18-2.82,1.93-4.14c0.38-0.66,0.78-1.31,1.2-1.94l0.32-0.47c0.06-0.08,0.09-0.16,0.19-0.24
						c0.12-0.03,0.13,0.07,0.16,0.1l0.07,0.12L61.71,67.29z M61.71,67.35l-0.6-1c-0.04-0.07-0.13-0.2-0.12-0.19
						c-0.04,0.04-0.1,0.14-0.15,0.21l-0.31,0.48c-0.41,0.64-0.8,1.29-1.16,1.96c-0.72,1.33-1.35,2.72-1.84,4.15
						c-0.98,2.86-1.44,5.89-1.38,8.91c0.04,3.02,0.55,6.03,1.33,8.95l0.31,1.09l0.08,0.27l0.04,0.14c0.02,0.05,0.05,0.19-0.03,0.32
						c-0.08,0.11-0.13,0.13-0.16,0.16l-0.11,0.09l-0.23,0.18c-0.6,0.47-1.22,0.92-1.83,1.37c-0.62,0.44-1.25,0.88-1.88,1.3
						l-0.96,0.62l-0.48,0.3l-0.24,0.15l-0.12,0.08c0.06-0.06,0.06-0.07,0.01,0.03l-0.25-0.4l0.11-0.01c0-0.01-0.06,0.01-0.05,0.01
						l0.05-0.04l0.22-0.14l0.44-0.28l0.87-0.57c0.58-0.37,1.16-0.75,1.71-1.17l1.68-1.23l0.84-0.62c0.05-0.03,0.13-0.11,0.32-0.1
						c0.18,0.01,0.28,0.13,0.27,0.11l0.2,0.1l0.46,0.23c2.47,1.2,5.16,1.9,7.89,2.21c2.73,0.31,5.51,0.23,8.23-0.21
						c1.36-0.22,2.69-0.55,3.97-1.03c0.64-0.24,1.25-0.52,1.82-0.88l0.07-0.05c0.01,0-0.06,0.02-0.07,0.17
						c0.01,0.13,0.04,0.12,0.04,0.12l-0.16-0.17l-0.36-0.38l-0.72-0.76l-0.28-0.3l0.4-0.17c1.14-0.48,2.41-0.78,3.23-1.62
						c0.42-0.41,0.75-0.91,0.97-1.46c0.03-0.09,0.13-0.4,0.36-0.52l0.4-0.24l0.81-0.48c1.1-0.62,2.13-1.26,2.87-2.23
						c0.37-0.47,0.68-1,0.93-1.56l0.18-0.42l0.04-0.11c0.02-0.03-0.01-0.06,0.02,0.08c0.06,0.09,0.02,0.03-0.01,0.02l-0.1-0.07
						l-0.74-0.57l-0.28-0.21l0.3-0.2c0.5-0.34,1.07-0.81,1.59-1.21c0.52-0.41,1.01-0.87,1.41-1.39c0.41-0.52,0.73-1.1,0.99-1.71
						c0.13-0.3,0.25-0.62,0.36-0.93l0.02-0.08c0,0-0.01,0.03,0.02,0.09c0.04,0.06,0.07,0.06,0.07,0.06
						c-0.02-0.01-0.13-0.02-0.21-0.04l-0.51-0.1l-0.5-0.1l0.4-0.31c0.84-0.66,1.78-1.13,2.34-1.94c0.29-0.4,0.49-0.86,0.65-1.33
						l0.11-0.36l0.02-0.07c0-0.04-0.02,0.06,0.07,0.13c0.08,0.04-0.04,0-0.08,0l-0.78-0.07l-0.25-0.02l0.06-0.24
						c0.04-0.17,0.08-0.16,0.11-0.21l0.08-0.1l0.16-0.2l0.3-0.4c0.19-0.28,0.37-0.56,0.53-0.85c0.32-0.59,0.59-1.21,0.82-1.84
						c0.23-0.63,0.41-1.29,0.57-1.95l0.11-0.5c0.03-0.15,0.08-0.38,0.08-0.43c-0.01,0.01,0.06,0.09,0.05,0.07
						c-0.01,0-0.04-0.01-0.08-0.01l-0.25-0.02l-0.51-0.04l-0.4-0.03l0.25-0.28c0.55-0.62,0.95-1.25,1.29-1.98
						c0.34-0.71,0.64-1.45,0.89-2.21c0.26-0.75,0.48-1.52,0.68-2.29l0.15-0.58l0.07-0.28c0-0.01-0.01-0.01,0.01,0.04
						c0.02,0.05,0.07,0.06,0.07,0.06l-0.12,0L98,58.08l-0.24-0.01l0.07-0.22c0.42-1.29,0.59-2.62,0.38-3.95
						c-0.1-0.66-0.27-1.31-0.5-1.93c-0.25-0.62-0.54-1.24-0.81-1.86l-0.41-0.93l-0.21-0.47c-0.03-0.06-0.01-0.03-0.02-0.04
						c-0.02-0.01-0.01-0.01-0.04-0.02l-0.25-0.03c-0.67-0.09-1.34-0.13-2.01-0.12c-1.34,0.01-2.67,0.28-3.93,0.77l-0.14,0.05
						l-0.05-0.14l-0.23-0.64c-0.03-0.09-0.09-0.25-0.1-0.28c0,0.01,0.07,0.02,0.01,0.02l-0.15,0.06c-0.41,0.16-0.81,0.36-1.18,0.6
						c-0.37,0.24-0.7,0.53-0.99,0.86c-0.29,0.32-0.52,0.71-0.77,1.09l-0.17,0.26l-0.07-0.29l-0.18-0.75l-0.09-0.37
						c0.01-0.07-0.09-0.11,0.05-0.05l-0.12,0.07l-1.32,0.76c-0.44,0.25-0.84,0.56-1.2,0.91c-0.37,0.34-0.65,0.76-0.93,1.18
						l-0.1,0.15l-0.09-0.15c-0.18-0.28-0.3-0.55-0.46-0.83c-0.03-0.06-0.08-0.16-0.1-0.18c0.01,0,0-0.01-0.09,0.04l-0.41,0.2
						l-1.66,0.82c-0.52,0.32-1.02,0.69-1.47,1.1c-0.46,0.42-0.82,0.88-1.2,1.42l-0.06,0.09l-0.08-0.1l-0.83-1.08
						c0.08-0.02-0.02,0.03-0.04,0.08l-0.12,0.13l-0.24,0.26l-0.47,0.53c-0.64,0.7-1.29,1.39-1.95,2.06
						c-1.33,1.35-2.72,2.63-4.13,3.89l-0.04,0.04l-0.04-0.04l-1.06-0.97l-0.26-0.24c-0.09-0.1-0.11-0.05-0.21,0.05l-0.49,0.52
						c-0.65,0.7-1.26,1.43-1.83,2.2c-0.58,0.76-1.1,1.56-1.63,2.35C62.78,65.75,62.29,66.53,61.71,67.35z"/>
				</g>
			</g>
			<path class="st6" d="M62.12,88.78C62,88.82,62.01,88.71,62,88.66c-0.17-0.64-0.35-1.29-0.49-1.94c-0.36-1.56-0.56-3.14-0.62-4.74
				c-0.06-1.67,0.04-3.33,0.3-4.98c0.33-2.09,0.91-4.11,1.69-6.08c0.02-0.05,0.07-0.09,0.11-0.13c0,0.06,0.01,0.12-0.01,0.17
				c-0.53,1.34-0.97,2.71-1.3,4.12c-0.34,1.43-0.56,2.88-0.65,4.34c-0.18,3,0.16,5.94,0.97,8.83c0.04,0.13,0.08,0.26,0.11,0.39
				C62.13,88.69,62.12,88.74,62.12,88.78C62.12,88.79,62.12,88.78,62.12,88.78z"/>
			<path class="st6" d="M68.7,75.14c0.23-2.6,0.82-5.12,1.68-7.58c0.59-1.68,1.31-3.31,2.16-4.88c0.03-0.05,0.09-0.09,0.14-0.14
				c-0.01,0.06-0.01,0.14-0.04,0.19c-1.22,2.28-2.18,4.66-2.87,7.16c-0.54,1.98-0.9,3.99-1.02,6.04c-0.11,1.94-0.01,3.86,0.37,5.77
				c0,0.02,0.01,0.05,0.01,0.07c-0.01,0.03-0.03,0.07-0.04,0.1c-0.03-0.03-0.07-0.05-0.07-0.08c-0.04-0.2-0.08-0.4-0.11-0.6
				c-0.32-1.93-0.38-3.88-0.23-5.83C68.69,75.29,68.7,75.22,68.7,75.14z"/>
			<path class="st6" d="M77.21,69.31c0.13-1.87,0.43-3.31,0.9-4.72c0.68-2.04,1.67-3.92,2.87-5.69c0.69-1.03,1.44-2.01,2.24-2.96
				c0.02-0.02,0.04-0.06,0.06-0.07c0.02-0.01,0.06-0.01,0.08,0c0.01,0,0.01,0.05,0,0.07c-0.01,0.03-0.04,0.05-0.06,0.07
				c-1.21,1.45-2.32,2.97-3.26,4.6c-0.91,1.58-1.64,3.24-2.12,5.01c-0.28,1.04-0.46,2.09-0.55,3.16c-0.1,1.2-0.07,2.4,0.08,3.6
				c0,0.03,0.01,0.06,0.01,0.08c-0.01,0.04-0.03,0.08-0.04,0.13c-0.03-0.04-0.07-0.07-0.08-0.11c-0.03-0.17-0.04-0.33-0.06-0.5
				C77.18,70.96,77.17,69.94,77.21,69.31z"/>
			<path class="st6" d="M70.38,86.26c-1-0.07-2-0.19-2.98-0.39c-0.42-0.09-0.84-0.19-1.26-0.28c-0.02,0-0.05-0.01-0.06-0.02
				c-0.03-0.02-0.06-0.05-0.09-0.08c0.04-0.01,0.09-0.04,0.13-0.03c0.31,0.07,0.62,0.15,0.93,0.22c1.49,0.32,3.01,0.49,4.54,0.53
				c1.55,0.04,3.09-0.05,4.63-0.26c2.21-0.31,4.36-0.87,6.44-1.7c0.13-0.05,0.27-0.11,0.4-0.16c0.04-0.01,0.08,0,0.12,0.01
				c-0.03,0.03-0.04,0.09-0.08,0.1c-0.52,0.2-1.04,0.41-1.56,0.59c-2.11,0.74-4.27,1.2-6.49,1.42c-1.52,0.15-3.05,0.18-4.58,0.07
				C70.42,86.27,70.4,86.27,70.38,86.26z"/>
			<path class="st6" d="M68.02,92.67c-1.92-0.15-3.75-0.55-5.52-1.22c-0.64-0.24-1.26-0.54-1.88-0.82
				c-0.02-0.01-0.06-0.02-0.07-0.04c-0.02-0.02-0.02-0.06-0.03-0.09c0.03-0.01,0.06-0.02,0.08-0.02c0.03,0.01,0.06,0.03,0.09,0.04
				c1.46,0.71,2.97,1.26,4.56,1.6c1.43,0.31,2.88,0.47,4.35,0.49c2.06,0.03,4.1-0.19,6.13-0.57c0.41-0.08,0.81-0.16,1.21-0.24
				c0.03-0.01,0.06-0.02,0.09-0.02c0.03,0,0.05,0.03,0.08,0.04c-0.02,0.02-0.03,0.05-0.05,0.07c-0.03,0.02-0.06,0.02-0.09,0.02
				c-1.74,0.38-3.5,0.65-5.29,0.77C70.44,92.78,69.21,92.78,68.02,92.67z"/>
			<path class="st6" d="M57.7,92.54c0.04-0.03,0.21-0.18,0.24-0.2c1.41-1.1,2.77-2.25,4.1-3.44c0.04-0.03,0.06-0.08,0.09-0.12l0,0
				c0.1-0.08,0.21-0.15,0.31-0.24c3.1-2.81,6.01-5.81,8.84-8.89c2.6-2.85,5.13-5.76,7.63-8.7c2.39-2.81,4.79-5.61,7.18-8.42
				c0.27-0.31,0.54-0.62,0.79-0.92c-0.03-0.07-0.06-0.12-0.06-0.18c-0.1-0.78-0.14-1.57-0.1-2.36c0.07-1.29,0.34-2.53,0.84-3.73
				c0.55-1.33,1.33-2.52,2.25-3.63c0.02-0.02,0.04-0.05,0.06-0.07c0.02-0.01,0.06-0.01,0.08-0.01c0,0.03,0.01,0.06,0,0.09
				c0,0.02-0.03,0.04-0.04,0.05c-0.35,0.47-0.72,0.92-1.05,1.4c-0.73,1.07-1.29,2.23-1.64,3.48c-0.38,1.37-0.48,2.78-0.36,4.19
				c0.02,0.21,0.05,0.43,0.07,0.67c0.05-0.05,0.07-0.08,0.1-0.1c1.44-1.62,2.88-3.25,4.32-4.87c0.2-0.22,0.4-0.44,0.61-0.66
				c0.02-0.02,0.07-0.02,0.11-0.03c-0.01,0.04-0.01,0.07-0.02,0.11c-0.01,0.02-0.04,0.04-0.05,0.06c-1.17,1.31-2.37,2.61-3.52,3.94
				c-2.51,2.9-5,5.82-7.5,8.74c-0.03,0.03-0.05,0.07-0.09,0.12c0.05,0,0.08,0.01,0.1,0.01c0.49,0.01,0.98,0.03,1.47,0.03
				c1.25-0.02,2.47-0.25,3.66-0.63c1.85-0.59,3.5-1.54,5.01-2.74c1.64-1.31,3.05-2.83,4.23-4.57c0.02-0.03,0.04-0.06,0.07-0.09
				c0.02-0.01,0.06-0.02,0.07-0.01c0.02,0.01,0.03,0.05,0.02,0.07c-0.01,0.04-0.04,0.07-0.06,0.1c-0.32,0.44-0.62,0.88-0.96,1.3
				c-1.52,1.9-3.3,3.52-5.42,4.74c-2.52,1.45-5.21,2.13-8.12,1.9c-0.12-0.01-0.2,0.02-0.28,0.12c-2.85,3.36-5.72,6.72-8.68,9.98
				c-0.03,0.03-0.05,0.06-0.08,0.1c0.06,0.01,0.11,0.02,0.15,0.03c0.77,0.05,1.55,0.12,2.32,0.14c0.98,0.02,1.95-0.08,2.91-0.25
				c2.23-0.38,4.34-1.1,6.37-2.08c3.14-1.51,5.96-3.48,8.52-5.82c0.03-0.02,0.05-0.05,0.08-0.07c0.02-0.01,0.06-0.01,0.07,0.01
				c0.01,0.01,0.01,0.05,0,0.07c-0.02,0.03-0.05,0.05-0.07,0.08c-0.4,0.35-0.8,0.71-1.21,1.06c-1.82,1.52-3.76,2.87-5.84,4.01
				c-1.93,1.05-3.93,1.91-6.06,2.46c-1.98,0.52-3.98,0.76-6.02,0.61c-0.44-0.03-0.88-0.09-1.35-0.13
				c-4.31,4.73-8.9,9.36-13.99,13.34L57.7,92.54z"/>
		</g>
		<g>
			<g>
				<g>
					<path class="st3" d="M38.76,71.35c0.1-0.15,0.12-0.15,0.21,0c1.09,1.83,2.02,3.74,2.7,5.77c0.62,1.86,1.02,3.76,1.2,5.71
						c0.12,1.28,0.14,2.55,0.07,3.83c-0.08,1.53-0.27,3.05-0.57,4.56c-0.43,2.19-1.06,4.33-1.83,6.43c-0.03,0.08-0.03,0.13,0.04,0.2
						c1.55,1.36,3.16,2.66,4.84,3.86c0.27,0.2,0.55,0.39,0.82,0.58c0.03,0.02,0.04,0.08,0.06,0.11c-0.04-0.01-0.09-0.01-0.13-0.02
						c-0.02,0-0.03-0.02-0.05-0.03c-0.84-0.61-1.7-1.2-2.51-1.85c-1.04-0.82-2.05-1.69-3.08-2.54c-0.07-0.06-0.12-0.08-0.2-0.03
						c-0.03,0.02-0.07,0.03-0.1,0.05c-2.58,1.17-5.3,1.78-8.11,1.98c-2.42,0.18-4.83,0.06-7.23-0.35c-1.87-0.32-3.71-0.79-5.46-1.54
						c-0.72-0.31-1.41-0.67-2.04-1.13c-0.15-0.11-0.15-0.12-0.02-0.24c0.39-0.36,0.78-0.71,1.16-1.07c0.04-0.03,0.07-0.07,0.11-0.11
						c-0.06-0.03-0.11-0.05-0.15-0.07c-0.56-0.26-1.13-0.5-1.68-0.78c-1.18-0.61-2-1.53-2.37-2.83c-0.02-0.08-0.09-0.17-0.16-0.22
						c-0.66-0.45-1.33-0.9-1.99-1.35c-0.55-0.38-1.06-0.81-1.5-1.32c-0.7-0.8-1.17-1.72-1.49-2.73c-0.08-0.25-0.08-0.2,0.12-0.34
						c0.25-0.17,0.51-0.34,0.8-0.54c-0.06-0.04-0.11-0.06-0.15-0.1c-0.45-0.4-0.9-0.8-1.35-1.2c-0.71-0.63-1.33-1.35-1.79-2.19
						c-0.36-0.67-0.61-1.37-0.81-2.1c-0.08-0.28-0.08-0.27,0.21-0.31c0.18-0.02,0.36-0.05,0.57-0.07c-0.07-0.06-0.11-0.11-0.16-0.14
						c-0.27-0.22-0.54-0.44-0.82-0.66c-0.42-0.33-0.82-0.69-1.14-1.13c-0.42-0.6-0.65-1.27-0.8-1.98c-0.05-0.24-0.05-0.24,0.2-0.25
						c0.26-0.01,0.51-0.01,0.77-0.02c0-0.03,0-0.04-0.01-0.04c-0.01-0.02-0.03-0.04-0.05-0.07c-0.58-0.78-1.01-1.63-1.35-2.54
						c-0.45-1.22-0.72-2.48-0.9-3.76c-0.05-0.39-0.05-0.39,0.35-0.4c0.2,0,0.39-0.01,0.62-0.01c-0.03-0.04-0.04-0.06-0.05-0.08
						c-0.51-0.63-0.86-1.34-1.16-2.08c-0.7-1.74-1.08-3.57-1.43-5.41c-0.02-0.09,0-0.14,0.11-0.13c0.15,0.01,0.31,0.01,0.46,0.02
						c0.28,0.01,0.56,0.02,0.85,0.03c-0.06-0.3-0.12-0.57-0.18-0.85c-0.15-0.8-0.18-1.6-0.08-2.41c0.12-1.04,0.43-2.03,0.89-2.97
						c0.49-0.99,1.02-1.96,1.54-2.94c0.03-0.05,0.1-0.09,0.16-0.1c1-0.08,1.99-0.08,2.99,0.06c1.08,0.14,2.12,0.45,3.11,0.9
						c0.04,0.02,0.08,0.04,0.13,0.06c0.13-0.3,0.25-0.58,0.37-0.86c0.04-0.11,0.09-0.14,0.2-0.09c1.11,0.48,2.01,1.2,2.63,2.25
						c0.11,0.19,0.22,0.39,0.34,0.61c0.02-0.06,0.04-0.11,0.05-0.16c0.1-0.32,0.19-0.63,0.29-0.95c0.05-0.16,0.07-0.17,0.2-0.08
						c0.51,0.33,1.03,0.65,1.52,1.01c0.61,0.45,1.13,0.98,1.53,1.62c0.1,0.17,0.2,0.34,0.31,0.52c0.02-0.03,0.04-0.05,0.06-0.07
						c0.18-0.28,0.36-0.57,0.54-0.85c0.06-0.1,0.11-0.1,0.21-0.06c0.7,0.34,1.38,0.72,2.01,1.16c1.03,0.72,1.91,1.57,2.52,2.69
						c0.01,0.02,0.03,0.03,0.05,0.05c0.29-0.33,0.57-0.65,0.85-0.97c0.1-0.12,0.11-0.12,0.21,0.01c0.28,0.36,0.56,0.72,0.84,1.07
						c1.49,1.86,3.08,3.63,4.74,5.34c0.29,0.3,0.58,0.6,0.88,0.9c0.05-0.04,0.09-0.07,0.14-0.11c0.42-0.34,0.84-0.67,1.26-1.02
						c0.1-0.08,0.15-0.08,0.24,0.02c1.11,1.29,2.1,2.68,2.96,4.15c0.69,1.16,1.35,2.34,2.02,3.51c0.03,0.06,0.07,0.11,0.12,0.2
						C38.31,72.03,38.53,71.69,38.76,71.35z"/>
				</g>
				<g>
					<path class="st4" d="M38.73,71.34c0.03-0.04,0.05-0.08,0.1-0.12c0.1-0.03,0.12,0.06,0.14,0.08l0.14,0.24l0.28,0.48l0.53,0.97
						c0.34,0.65,0.66,1.31,0.96,1.99c0.59,1.35,1.07,2.74,1.42,4.17C43,82,43.18,84.98,42.91,87.9c-0.26,2.93-0.95,5.81-1.87,8.6
						l-0.36,1.04c-0.03,0.08-0.08,0.2-0.06,0.21c0,0.02,0.11,0.1,0.17,0.15l0.42,0.36c0.56,0.48,1.12,0.94,1.7,1.4
						c0.57,0.46,1.15,0.9,1.74,1.34l0.89,0.64l0.45,0.32l0.23,0.16l0.11,0.08c0.09,0.07,0.09,0.14,0.1,0.16l0.24,0.22l-0.36-0.05
						l-0.14-0.02c-0.08-0.04-0.12-0.07-0.15-0.09l-0.21-0.15l-0.42-0.31l-0.84-0.61c-0.57-0.41-1.13-0.82-1.66-1.27l-1.61-1.32
						l-0.81-0.66c-0.1-0.03,0.07-0.04-0.07,0.01l-0.25,0.12l-0.48,0.21c-2.59,1.08-5.37,1.63-8.16,1.77
						c-2.79,0.15-5.6-0.1-8.33-0.71c-1.36-0.31-2.71-0.73-4-1.29c-0.64-0.29-1.27-0.62-1.85-1.04c-0.04-0.03-0.07-0.05-0.12-0.1
						c-0.02-0.02-0.09-0.07-0.09-0.21c0.02-0.12,0.06-0.15,0.08-0.17c0.08-0.09,0.14-0.13,0.2-0.19l0.38-0.35l0.76-0.71l0.06,0.33
						l-1.72-0.79c-0.58-0.27-1.13-0.66-1.57-1.14c-0.45-0.48-0.78-1.07-0.98-1.69c-0.06-0.19-0.07-0.24-0.14-0.29l-0.39-0.26
						L13,91.03c-1.04-0.66-2.13-1.45-2.85-2.53c-0.37-0.53-0.66-1.11-0.89-1.71L9.1,86.34l-0.04-0.11c0-0.04-0.07-0.09,0.01-0.29
						c0.1-0.14,0.13-0.12,0.17-0.16l0.09-0.06l0.78-0.53l0,0.39c-0.6-0.45-1.04-0.9-1.57-1.36c-0.52-0.46-1-0.98-1.4-1.56
						c-0.4-0.58-0.71-1.22-0.94-1.88c-0.12-0.33-0.22-0.66-0.31-0.99c-0.01-0.04-0.03-0.09-0.03-0.17c0-0.05-0.01-0.12,0.05-0.22
						c0.07-0.1,0.15-0.11,0.19-0.13c0.15-0.04,0.21-0.03,0.3-0.05l0.5-0.07l-0.14,0.44c-0.73-0.66-1.7-1.21-2.3-2.18
						c-0.29-0.47-0.49-0.99-0.62-1.51l-0.09-0.39l-0.02-0.12c0-0.03-0.01-0.06,0-0.13c0.01-0.06,0.08-0.18,0.15-0.21
						c0.24-0.1,0.24-0.04,0.32-0.06l0.78-0.02l-0.26,0.3c0.04,0.11,0.02,0.03,0,0.02l-0.08-0.11l-0.15-0.22l-0.28-0.44
						c-0.18-0.3-0.35-0.61-0.5-0.93c-0.3-0.63-0.54-1.29-0.73-1.96c-0.19-0.67-0.34-1.35-0.46-2.03l-0.08-0.51
						c-0.01-0.2-0.07-0.27-0.05-0.61c0-0.13,0.2-0.3,0.29-0.3c0.09-0.02,0.14-0.03,0.19-0.03l0.27-0.01l0.51-0.01L3.4,68.56
						c-0.47-0.6-0.91-1.38-1.21-2.13c-0.31-0.76-0.56-1.53-0.77-2.31c-0.21-0.78-0.39-1.57-0.54-2.36l-0.12-0.59L0.7,60.85
						c0-0.05-0.02-0.12,0.04-0.25c0.08-0.14,0.23-0.19,0.29-0.19c0.15-0.01,0.14,0,0.2,0l1.19,0.04l-0.3,0.36
						c-0.34-1.31-0.44-2.8-0.13-4.16c0.15-0.69,0.37-1.36,0.66-1.99c0.3-0.63,0.63-1.21,0.94-1.82l0.47-0.91l0.24-0.45
						c-0.01,0,0.1-0.17,0.17-0.21c0.06-0.05,0.19-0.09,0.27-0.1L5,51.16c0.69-0.05,1.39-0.05,2.08,0c1.39,0.1,2.77,0.46,4.02,1.06
						l-0.4,0.15l0.27-0.62l0.07-0.15c0.03-0.05,0.02-0.09,0.11-0.22c0.04-0.06,0.16-0.15,0.28-0.16c0.11-0.01,0.17,0.02,0.21,0.04
						l0.17,0.08c0.43,0.2,0.84,0.44,1.21,0.73c0.38,0.29,0.72,0.63,1,1.01c0.3,0.38,0.51,0.8,0.72,1.19l-0.48,0.04l0.23-0.72
						l0.11-0.37c0.01-0.03,0.02-0.07,0.04-0.12c0.01-0.03,0.03-0.06,0.08-0.12c0.06-0.07,0.21-0.1,0.27-0.08
						c0.2,0.06,0.19,0.1,0.26,0.13l1.28,0.86c0.43,0.29,0.83,0.65,1.19,1.04c0.36,0.39,0.63,0.86,0.88,1.3l-0.37-0.02
						c0.16-0.21,0.33-0.51,0.49-0.76c0.06-0.08,0.05-0.1,0.17-0.24c0.06-0.08,0.24-0.11,0.31-0.08c0.08,0.02,0.12,0.05,0.15,0.07
						l0.41,0.24l1.63,0.96c0.51,0.37,1,0.78,1.44,1.24c0.43,0.44,0.82,1.03,1.1,1.51l-0.26,0l0.47-0.53l0.24-0.27l0.12-0.13
						c0.06-0.05,0.02-0.08,0.21-0.17c0.18-0.02,0.22,0.08,0.24,0.09l0.06,0.08l0.11,0.14l0.22,0.28l0.43,0.56
						c0.58,0.74,1.18,1.47,1.8,2.18c1.23,1.43,2.52,2.81,3.84,4.16l-0.14-0.01l1.12-0.89l0.28-0.22c0.04-0.03,0.14-0.12,0.26-0.06
						c0.09,0.05,0.12,0.11,0.16,0.15l0.46,0.56c0.6,0.75,1.16,1.53,1.68,2.33c1.03,1.61,1.91,3.31,2.88,4.96l-0.06,0L38.73,71.34z
						 M38.78,71.37l-0.68,1.04l-0.03,0.05l-0.03-0.05c-0.99-1.64-1.89-3.33-2.93-4.92c-0.53-0.79-1.09-1.56-1.7-2.3l-0.46-0.55
						c-0.04-0.05-0.08-0.09-0.1-0.1c0.01,0-0.01,0-0.06,0.04l-0.28,0.23l-1.11,0.9l-0.07,0.06l-0.07-0.07
						c-1.34-1.33-2.65-2.7-3.9-4.12c-0.63-0.71-1.24-1.43-1.83-2.17l-0.44-0.56l-0.22-0.28l-0.11-0.14l-0.05-0.06
						c-0.01-0.03-0.03,0.02,0.09,0.01c0.08-0.04-0.02,0.03-0.04,0.07l-0.12,0.13l-0.23,0.27l-0.46,0.54l-0.15,0.18l-0.11-0.17
						c-0.37-0.58-0.67-1.04-1.11-1.49c-0.42-0.44-0.89-0.83-1.39-1.17l-1.6-0.91l-0.4-0.23c-0.04-0.02-0.07-0.04-0.06-0.03
						c0,0.01,0.09-0.01,0.09-0.03l-0.09,0.15c-0.17,0.27-0.31,0.52-0.51,0.81l-0.19,0.27l-0.18-0.3c-0.26-0.44-0.51-0.86-0.85-1.22
						c-0.33-0.36-0.7-0.68-1.13-0.96l-1.27-0.84c-0.04-0.03-0.15-0.08-0.07-0.06c0.03,0.01,0.14-0.01,0.18-0.05
						c0.04-0.04,0.03-0.04,0.03-0.04l-0.02,0.06L15,53.75l-0.23,0.74l-0.18,0.58l-0.3-0.53c-0.22-0.39-0.43-0.79-0.69-1.12
						c-0.26-0.34-0.57-0.64-0.92-0.9c-0.34-0.26-0.72-0.47-1.11-0.65l-0.14-0.06c0,0,0,0,0.05,0c0.06,0,0.13-0.06,0.14-0.07
						c0.02-0.04-0.01,0.03-0.03,0.09l-0.07,0.16l-0.26,0.63l-0.12,0.28l-0.28-0.13c-1.21-0.55-2.5-0.91-3.82-1
						c-0.66-0.05-1.33-0.05-1.99,0l-0.25,0.02c-0.01,0,0.04-0.01,0.03-0.01c0,0.01,0.06-0.08,0.02-0.01L4.6,52.21l-0.47,0.9
						c-0.31,0.6-0.64,1.2-0.93,1.8c-0.27,0.6-0.48,1.23-0.62,1.87c-0.29,1.3-0.21,2.59,0.13,3.91l0.1,0.38l-0.4-0.02L1.2,61.01
						c-0.03,0-0.15-0.01-0.1-0.01c0.01,0,0.11-0.02,0.17-0.12c0.04-0.09,0.03-0.11,0.03-0.11l0.05,0.27l0.12,0.59
						C1.63,62.43,1.8,63.2,2,63.97c0.2,0.76,0.45,1.52,0.74,2.25c0.3,0.74,0.64,1.38,1.15,2.04l0.33,0.43L3.65,68.7l-0.51,0.01
						L2.9,68.72l-0.06,0.01c0,0.02,0.12-0.09,0.11-0.13L3,69l0.08,0.5c0.11,0.67,0.25,1.32,0.44,1.97c0.18,0.65,0.41,1.28,0.69,1.88
						c0.14,0.3,0.3,0.6,0.47,0.88l0.27,0.42l0.14,0.2l0.07,0.1c0.02,0.05,0.07,0.04,0.1,0.24l0.06,0.3L5,75.5l-0.78,0.02
						c-0.04-0.01-0.18,0.03-0.06-0.02c0.04-0.02,0.1-0.1,0.1-0.14c0.01-0.03,0-0.03,0-0.03l0.01,0.07l0.08,0.37
						c0.12,0.48,0.3,0.95,0.55,1.36c0.25,0.41,0.6,0.76,0.98,1.09c0.39,0.33,0.8,0.63,1.21,1l0.41,0.37l-0.55,0.07l-0.51,0.06
						l-0.21,0.03c0,0,0.03,0,0.08-0.07c0.04-0.07,0.03-0.1,0.03-0.1l0.02,0.08c0.09,0.32,0.18,0.64,0.29,0.96
						c0.22,0.63,0.51,1.23,0.88,1.77c0.37,0.54,0.82,1.03,1.32,1.48c0.5,0.43,1.03,0.95,1.51,1.32l0.27,0.21l-0.27,0.18L9.6,86.09
						c-0.04,0.02-0.2,0.15-0.12,0.06c0.04-0.13,0.01-0.1,0.03-0.07l0.04,0.11l0.15,0.43c0.21,0.57,0.49,1.12,0.83,1.62
						c0.68,1.02,1.67,1.74,2.73,2.43l0.78,0.53l0.39,0.26c0.21,0.12,0.28,0.4,0.31,0.51c0.18,0.57,0.48,1.1,0.88,1.54
						c0.79,0.91,2.03,1.3,3.14,1.85l0.27,0.13l-0.21,0.2l-0.77,0.71l-0.38,0.35l-0.18,0.16c-0.01,0,0,0.02,0.02-0.06
						c0-0.09-0.04-0.11-0.03-0.1l0.08,0.06c0.55,0.4,1.15,0.73,1.77,1.01c1.26,0.56,2.58,0.98,3.92,1.29
						c2.69,0.61,5.47,0.88,8.23,0.74c2.76-0.13,5.51-0.66,8.06-1.71l0.48-0.2l0.22-0.1c0.02,0,0.08-0.07,0.19-0.07
						c0.11,0,0.17,0.06,0.21,0.09l0.8,0.67l1.6,1.33c0.52,0.46,1.08,0.87,1.64,1.28l0.84,0.62l0.42,0.31l0.21,0.15
						c0.04,0.03,0.07,0.05,0.06,0.05l0.12,0.02l-0.12,0.17c-0.03-0.07-0.04-0.1-0.03-0.08l-0.11-0.08l-0.22-0.16l-0.45-0.32
						l-0.89-0.65c-0.59-0.44-1.17-0.89-1.74-1.36c-0.57-0.46-1.13-0.94-1.69-1.42l-0.41-0.36c-0.07-0.08-0.14-0.08-0.22-0.23
						c-0.02-0.18,0.05-0.22,0.07-0.32l0.37-1.04c0.95-2.77,1.65-5.64,1.92-8.56c0.28-2.92,0.11-5.88-0.59-8.73
						c-0.35-1.42-0.82-2.82-1.4-4.16c-0.29-0.67-0.61-1.33-0.95-1.98l-0.52-0.97l-0.27-0.48C38.95,71.46,38.89,71.11,38.78,71.37z"
						/>
				</g>
			</g>
			<path class="st6" d="M36.33,93.79c0.12,0.05,0.11-0.06,0.13-0.12c0.21-0.63,0.43-1.26,0.61-1.9c0.45-1.53,0.75-3.1,0.91-4.69
				c0.17-1.66,0.17-3.32,0.01-4.99c-0.2-2.11-0.65-4.16-1.31-6.17c-0.02-0.05-0.07-0.09-0.1-0.14c0,0.06-0.02,0.12,0,0.17
				c0.44,1.37,0.8,2.77,1.04,4.19c0.25,1.45,0.38,2.91,0.38,4.37c0,3-0.53,5.92-1.51,8.75c-0.04,0.13-0.09,0.26-0.14,0.38
				C36.33,93.7,36.34,93.75,36.33,93.79L36.33,93.79z"/>
			<path class="st6" d="M30.61,79.77c-0.07-2.61-0.5-5.16-1.21-7.67c-0.49-1.72-1.11-3.39-1.86-5.01c-0.03-0.06-0.09-0.1-0.13-0.14
				c0.01,0.06,0,0.14,0.03,0.19c1.08,2.35,1.89,4.79,2.42,7.32c0.42,2.01,0.65,4.04,0.64,6.09c-0.01,1.94-0.23,3.86-0.72,5.74
				c-0.01,0.02-0.02,0.05-0.01,0.07c0.01,0.04,0.02,0.07,0.03,0.1c0.03-0.02,0.07-0.04,0.08-0.07c0.05-0.2,0.1-0.39,0.15-0.59
				c0.44-1.91,0.62-3.85,0.59-5.81C30.61,79.92,30.61,79.84,30.61,79.77z"/>
			<path class="st6" d="M22.48,73.42c-0.02-1.87-0.22-3.33-0.6-4.77c-0.55-2.08-1.42-4.01-2.51-5.86c-0.63-1.07-1.32-2.1-2.05-3.1
				c-0.02-0.03-0.03-0.06-0.06-0.07c-0.02-0.01-0.06-0.01-0.08,0c-0.01,0-0.01,0.05,0,0.07c0.01,0.03,0.03,0.05,0.05,0.08
				c1.11,1.52,2.13,3.1,2.97,4.79c0.81,1.64,1.44,3.34,1.81,5.13c0.22,1.05,0.34,2.11,0.36,3.19c0.02,1.21-0.08,2.4-0.3,3.59
				c0,0.03-0.02,0.05-0.01,0.08c0.01,0.04,0.02,0.09,0.03,0.13c0.03-0.03,0.07-0.06,0.08-0.1c0.04-0.16,0.06-0.33,0.09-0.5
				C22.4,75.08,22.47,74.06,22.48,73.42z"/>
			<path class="st6" d="M28.25,90.77c1-0.01,2-0.06,3-0.21c0.43-0.06,0.85-0.14,1.28-0.2c0.02,0,0.05,0,0.07-0.01
				c0.03-0.02,0.06-0.05,0.1-0.08c-0.04-0.01-0.09-0.04-0.12-0.04c-0.31,0.05-0.62,0.11-0.94,0.16c-1.51,0.23-3.03,0.3-4.56,0.25
				c-1.55-0.05-3.08-0.24-4.6-0.55c-2.19-0.44-4.3-1.14-6.32-2.09c-0.13-0.06-0.26-0.13-0.39-0.19c-0.03-0.01-0.08,0-0.12,0
				c0.02,0.04,0.04,0.09,0.07,0.11c0.51,0.23,1.01,0.47,1.52,0.69c2.06,0.87,4.19,1.46,6.39,1.82c1.51,0.24,3.03,0.37,4.57,0.35
				C28.21,90.77,28.23,90.77,28.25,90.77z"/>
			<path class="st6" d="M30.21,97.31c1.93-0.04,3.78-0.32,5.59-0.88c0.65-0.2,1.29-0.46,1.93-0.7c0.03-0.01,0.06-0.02,0.07-0.03
				c0.02-0.02,0.03-0.06,0.04-0.09c-0.03-0.01-0.06-0.02-0.08-0.02c-0.03,0-0.06,0.02-0.09,0.04c-1.5,0.62-3.04,1.07-4.65,1.32
				c-1.45,0.23-2.91,0.29-4.37,0.23c-2.06-0.1-4.08-0.44-6.08-0.95c-0.4-0.1-0.8-0.21-1.2-0.32c-0.03-0.01-0.06-0.02-0.09-0.02
				c-0.03,0-0.05,0.02-0.08,0.03c0.02,0.02,0.03,0.06,0.05,0.07c0.02,0.02,0.06,0.02,0.09,0.03c1.72,0.49,3.46,0.87,5.23,1.09
				C27.79,97.26,29.02,97.34,30.21,97.31z"/>
			<path class="st6" d="M40.52,97.81c-0.04-0.03-0.2-0.19-0.23-0.21c-1.34-1.18-2.62-2.42-3.88-3.69c-0.03-0.03-0.05-0.08-0.08-0.12
				l0,0c-0.1-0.09-0.2-0.16-0.29-0.26c-2.92-3-5.64-6.16-8.27-9.42c-2.42-3-4.76-6.07-7.08-9.15c-2.22-2.95-4.43-5.9-6.65-8.85
				c-0.25-0.33-0.5-0.66-0.73-0.97c0.03-0.07,0.06-0.12,0.07-0.17c0.15-0.78,0.24-1.56,0.24-2.35c0.01-1.29-0.19-2.55-0.61-3.77
				c-0.47-1.36-1.18-2.6-2.03-3.76c-0.02-0.03-0.03-0.06-0.06-0.07c-0.02-0.01-0.05-0.01-0.08-0.02c0,0.03-0.01,0.06-0.01,0.09
				c0,0.02,0.02,0.04,0.04,0.06c0.32,0.49,0.66,0.96,0.96,1.47c0.67,1.11,1.15,2.3,1.42,3.57c0.3,1.4,0.31,2.8,0.1,4.21
				c-0.03,0.21-0.07,0.42-0.11,0.66c-0.05-0.05-0.07-0.08-0.09-0.11c-1.34-1.71-2.67-3.42-4.01-5.13c-0.18-0.24-0.37-0.47-0.57-0.7
				c-0.02-0.03-0.07-0.03-0.11-0.04c0.01,0.04,0.01,0.07,0.02,0.11c0.01,0.02,0.03,0.04,0.05,0.06c1.09,1.38,2.2,2.75,3.27,4.15
				c2.33,3.05,4.63,6.12,6.95,9.18c0.03,0.03,0.05,0.07,0.08,0.13c-0.05,0-0.08,0-0.1,0c-0.49-0.02-0.98-0.03-1.47-0.06
				c-1.25-0.1-2.45-0.4-3.61-0.86c-1.81-0.71-3.4-1.75-4.83-3.04c-1.56-1.4-2.87-3.01-3.94-4.82c-0.02-0.03-0.03-0.07-0.06-0.09
				c-0.02-0.01-0.05-0.02-0.07-0.01c-0.02,0.01-0.03,0.05-0.02,0.07c0.01,0.04,0.03,0.07,0.06,0.11c0.29,0.45,0.57,0.92,0.88,1.36
				c1.4,1.99,3.08,3.71,5.12,5.07c2.42,1.61,5.07,2.45,7.99,2.4c0.12,0,0.19,0.03,0.27,0.13c2.64,3.53,5.29,7.06,8.05,10.5
				c0.02,0.03,0.04,0.06,0.07,0.11c-0.06,0.01-0.11,0.02-0.15,0.02c-0.78,0-1.55,0.03-2.33,0c-0.98-0.04-1.94-0.2-2.89-0.43
				c-2.2-0.51-4.26-1.37-6.23-2.47c-3.04-1.7-5.73-3.84-8.15-6.34c-0.03-0.03-0.05-0.06-0.08-0.07c-0.02-0.01-0.06-0.01-0.07,0
				c-0.01,0.01-0.02,0.05-0.01,0.07c0.02,0.03,0.04,0.06,0.07,0.08c0.38,0.38,0.75,0.76,1.14,1.13c1.72,1.63,3.57,3.1,5.58,4.36
				c1.86,1.17,3.81,2.15,5.9,2.83c1.94,0.64,3.93,1,5.97,0.98c0.44,0,0.89-0.03,1.35-0.05c4.01,4.98,8.31,9.89,13.14,14.18
				L40.52,97.81z"/>
		</g>
		<g>
			<rect x="8.14" y="114.82" class="st7" width="83.92" height="81.22"/>
			<rect x="75.27" y="109.99" class="st7" width="16.78" height="9.8"/>
			<rect x="8.14" y="109.99" class="st7" width="16.78" height="9.8"/>
			<rect x="75.27" y="183.23" class="st7" width="16.78" height="17.77"/>
			<rect x="41.7" y="183.23" class="st7" width="16.78" height="17.77"/>
			<rect x="8.14" y="183.23" class="st7" width="16.78" height="17.77"/>
			<polygon class="st7" points="92.31,126.02 7.88,126.02 1.28,120.45 1.28,114.89 98.9,114.89 98.9,120.45 			"/>
		</g>
		<g>
			<g>
				<g>
					<path class="st3" d="M64.31,21.56c0.04-0.05,0.08-0.08,0.11-0.12c0.63-0.72,1.26-1.44,1.9-2.15c0.81-0.89,1.68-1.71,2.64-2.45
						c0.07-0.06,0.11-0.05,0.17,0.02c0.24,0.3,0.49,0.59,0.73,0.88c0.02,0.03,0.05,0.06,0.08,0.09c0.25-0.17,0.49-0.33,0.74-0.5
						c1.39-0.95,2.74-1.95,4.04-3.03c0.25-0.21,0.49-0.41,0.73-0.62c0.09-0.07,0.09-0.07,0.15,0.02c0.15,0.26,0.3,0.52,0.45,0.79
						c0.02-0.01,0.03-0.02,0.04-0.03c0.58-0.68,1.31-1.15,2.12-1.5c0.5-0.22,1.03-0.38,1.56-0.52c0.07-0.02,0.11-0.01,0.14,0.07
						c0.08,0.22,0.17,0.44,0.25,0.67c0.01,0.02,0.02,0.03,0.03,0.06c0.1-0.11,0.19-0.21,0.28-0.32c0.37-0.39,0.81-0.68,1.29-0.91
						c0.39-0.18,0.79-0.33,1.19-0.49c0.11-0.04,0.12-0.03,0.13,0.08c0.02,0.23,0.05,0.47,0.07,0.7c0,0.03,0.01,0.07,0.01,0.12
						c0.11-0.13,0.22-0.26,0.32-0.38c0.58-0.64,1.3-1.01,2.14-1.19c0.08-0.02,0.11,0.01,0.13,0.09c0.04,0.21,0.09,0.43,0.13,0.65
						c0.04-0.01,0.07-0.02,0.1-0.02c0.75-0.17,1.51-0.24,2.28-0.18c0.71,0.05,1.4,0.18,2.08,0.38c0.04,0.01,0.08,0.05,0.09,0.09
						c0.22,0.75,0.45,1.5,0.65,2.25c0.19,0.71,0.26,1.44,0.2,2.18c-0.05,0.57-0.18,1.13-0.4,1.66c-0.08,0.19-0.16,0.37-0.24,0.57
						c0.2,0.03,0.4,0.07,0.59,0.1c0.11,0.02,0.21,0.04,0.32,0.05c0.07,0.01,0.08,0.05,0.06,0.11c-0.5,1.22-1.03,2.43-1.75,3.54
						c-0.31,0.47-0.66,0.91-1.1,1.28c-0.01,0.01-0.02,0.02-0.05,0.05c0.15,0.03,0.29,0.07,0.42,0.1c0.27,0.06,0.28,0.06,0.18,0.32
						c-0.3,0.86-0.67,1.7-1.15,2.48c-0.36,0.58-0.79,1.11-1.29,1.57c-0.01,0.01-0.03,0.03-0.04,0.04c0,0,0,0.01-0.01,0.03
						c0.18,0.04,0.35,0.08,0.53,0.12c0.18,0.04,0.17,0.04,0.11,0.2c-0.2,0.47-0.46,0.9-0.83,1.26c-0.28,0.26-0.61,0.45-0.95,0.62
						c-0.22,0.11-0.44,0.23-0.66,0.34c-0.04,0.02-0.07,0.04-0.13,0.08c0.14,0.05,0.26,0.09,0.38,0.13c0.2,0.06,0.19,0.06,0.1,0.24
						c-0.24,0.48-0.52,0.93-0.86,1.34c-0.43,0.52-0.96,0.93-1.55,1.27c-0.37,0.21-0.74,0.43-1.11,0.64
						c-0.03,0.02-0.07,0.03-0.12,0.05c0.18,0.18,0.33,0.33,0.48,0.49c0.12,0.13,0.13,0.09,0.04,0.25c-0.37,0.65-0.82,1.22-1.42,1.68
						c-0.38,0.29-0.79,0.51-1.22,0.7c-0.52,0.22-1.05,0.43-1.57,0.65c-0.06,0.02-0.11,0.08-0.14,0.13
						c-0.44,0.84-1.14,1.37-2.04,1.62c-0.42,0.12-0.85,0.2-1.27,0.3c-0.03,0.01-0.07,0.02-0.12,0.03c0.02,0.03,0.04,0.06,0.06,0.09
						c0.22,0.3,0.44,0.6,0.65,0.9c0.07,0.1,0.07,0.11-0.05,0.16c-0.5,0.23-1.03,0.38-1.57,0.5c-1.32,0.27-2.65,0.34-4,0.29
						c-1.72-0.06-3.4-0.32-5.05-0.78c-1.92-0.54-3.71-1.35-5.33-2.52c-0.02-0.02-0.04-0.03-0.06-0.05
						c-0.05-0.05-0.09-0.04-0.14-0.01c-0.83,0.44-1.65,0.9-2.49,1.32c-0.65,0.33-1.33,0.62-2,0.92c-0.01,0.01-0.02,0.01-0.04,0.01
						c-0.03,0-0.06,0-0.09,0c0.02-0.02,0.03-0.06,0.06-0.07c0.22-0.1,0.43-0.19,0.65-0.29c1.33-0.6,2.63-1.26,3.9-1.99
						c0.06-0.03,0.07-0.07,0.06-0.13c-0.23-1.56-0.37-3.13-0.36-4.71c0.01-1.08,0.09-2.16,0.25-3.24c0.14-0.9,0.33-1.78,0.59-2.64
						c0.4-1.32,0.94-2.59,1.64-3.78c0.76-1.31,1.67-2.5,2.68-3.61c0.08-0.09,0.1-0.09,0.15,0.03
						C64.09,21.01,64.19,21.28,64.31,21.56z"/>
				</g>
				<g>
					<path class="st4" d="M64.31,21.53c0.39-0.49,0.87-1.01,1.31-1.51c0.44-0.51,0.88-1.02,1.36-1.5c0.47-0.48,0.97-0.94,1.49-1.37
						l0.39-0.32c0.03-0.02,0.06-0.06,0.13-0.08c0.09-0.02,0.14,0.05,0.16,0.08l0.16,0.19l0.65,0.77l-0.08-0.01
						c1.12-0.73,2.14-1.59,3.22-2.38l1.59-1.21l0.38-0.32l0.19-0.16l0.1-0.08c0.05-0.01,0.01-0.09,0.2-0.07
						c0.26,0.35,0.36,0.59,0.55,0.9l-0.14-0.03c0.27-0.3,0.61-0.64,0.97-0.88c0.36-0.26,0.76-0.47,1.16-0.65l1.26-0.43l0.32-0.11
						c0.02-0.01,0.18-0.07,0.27,0.06c0.05,0.09,0.05,0.12,0.08,0.18c0.08,0.2,0.15,0.42,0.24,0.6l-0.19-0.03
						c0.24-0.27,0.49-0.55,0.79-0.77c0.3-0.22,0.62-0.41,0.96-0.55l1.01-0.41c0.05-0.02,0.06-0.04,0.18-0.05
						c0.03-0.01,0.11,0.03,0.13,0.07c0.02,0.04,0.03,0.06,0.03,0.08l0.01,0.08l0.03,0.27l0.06,0.53l-0.23-0.07
						c0.21-0.24,0.41-0.5,0.66-0.72c0.25-0.22,0.53-0.4,0.83-0.55c0.3-0.15,0.61-0.25,0.93-0.33l0.12-0.03
						c0.03-0.03,0.22,0.01,0.26,0.12c0.05,0.15,0.04,0.18,0.07,0.27l0.1,0.47l-0.18-0.11c0.94-0.23,1.94-0.3,2.91-0.17
						c0.48,0.06,0.96,0.16,1.43,0.28l0.18,0.05c0.05,0.01,0.12,0.05,0.15,0.09c0.04,0.03,0.08,0.14,0.08,0.15l0.1,0.35l0.2,0.69
						c0.27,0.91,0.59,1.86,0.57,2.86c0.03,0.98-0.25,1.99-0.67,2.85l-0.14-0.25l0.83,0.14c0.05,0.01,0.04,0,0.14,0.03
						c0.04,0.01,0.13,0.06,0.16,0.16c0.02,0.09,0,0.13-0.01,0.16l-0.08,0.21l-0.16,0.39c-0.22,0.52-0.45,1.05-0.7,1.56
						c-0.25,0.51-0.54,1.01-0.85,1.5c-0.31,0.48-0.72,0.96-1.13,1.31l-0.1-0.33l0.35,0.08l0.18,0.04c0.03,0.01,0.07,0.02,0.13,0.05
						c0.06,0.01,0.17,0.16,0.16,0.25c-0.03,0.24-0.08,0.28-0.12,0.42l-0.13,0.34c-0.18,0.46-0.37,0.91-0.6,1.34
						c-0.23,0.44-0.48,0.86-0.78,1.26c-0.15,0.2-0.31,0.39-0.47,0.58l-0.26,0.27l-0.14,0.13l-0.07,0.06
						c-0.02,0.01-0.05,0.06,0.01-0.02l-0.16-0.28l0.54,0.12c0.06,0.03,0.06-0.02,0.23,0.1c0.05,0.04,0.09,0.14,0.08,0.19
						c0,0.05-0.01,0.08-0.02,0.1l-0.03,0.09l-0.12,0.26c-0.17,0.34-0.37,0.68-0.64,0.97c-0.55,0.6-1.31,0.85-1.9,1.2l-0.04-0.42
						l0.34,0.11c0.06,0.02,0.1,0.02,0.21,0.08c0.03,0.02,0.09,0.04,0.14,0.14c0.04,0.1,0.02,0.16,0.01,0.2
						c-0.02,0.07-0.04,0.09-0.05,0.12c-0.11,0.22-0.23,0.44-0.36,0.65c-0.26,0.42-0.56,0.83-0.92,1.18c-0.36,0.35-0.77,0.65-1.2,0.9
						c-0.44,0.24-0.79,0.49-1.29,0.73l0.09-0.41l0.47,0.47l0.05,0.05c0.02,0.03,0.04,0.01,0.12,0.17c0.04,0.22-0.04,0.24-0.04,0.27
						l-0.04,0.08l-0.18,0.3c-0.24,0.39-0.53,0.76-0.86,1.08c-0.66,0.66-1.55,1.07-2.36,1.38l-0.61,0.26l-0.31,0.13
						c-0.02,0.01,0-0.02-0.08,0.13c-0.23,0.42-0.56,0.79-0.95,1.08c-0.39,0.29-0.84,0.48-1.29,0.6l-1.31,0.32l0.18-0.44l0.43,0.59
						l0.22,0.3l0.12,0.17c0.01,0.03,0.06,0.06,0.05,0.23c-0.04,0.18-0.14,0.22-0.16,0.24c-0.06,0.04-0.09,0.05-0.12,0.06
						c-0.47,0.22-0.96,0.37-1.46,0.48c-0.98,0.22-1.98,0.32-2.98,0.34c-1.99,0.04-3.99-0.18-5.92-0.68
						c-1.93-0.49-3.8-1.27-5.46-2.39l-0.31-0.21c-0.06-0.05-0.08-0.05-0.18-0.13c-0.07-0.06-0.03,0,0.07,0.02
						c0.11,0.01,0.13-0.02,0.12-0.01l-0.65,0.34l-1.31,0.68c-0.43,0.24-0.88,0.44-1.33,0.64l-0.67,0.31l-0.34,0.15l-0.17,0.08
						l-0.04,0.02c-0.02,0.01-0.11,0.04-0.15,0.04l-0.11-0.01l-0.52-0.03l0.33-0.41c0.05-0.06,0.12-0.12,0.16-0.15l0.09-0.04
						l0.19-0.08l0.37-0.16l0.72-0.36l1.43-0.72l1.43-0.72l0.18-0.09l0.09-0.04c0.04-0.02,0.06-0.04,0.02,0
						c-0.04,0.06-0.03,0.11-0.03,0.08l-0.01-0.1l-0.03-0.2l-0.1-0.8c-0.24-2.15-0.27-4.33,0.02-6.47c0.18-1.07,0.46-2.12,0.7-3.17
						c0.32-1.03,0.74-2.04,1.25-2.99c0.51-0.95,1.11-1.86,1.77-2.7c0.33-0.43,0.68-0.84,1.04-1.24l0.27-0.3
						c0.05-0.05,0.07-0.1,0.16-0.15c0.17,0.04,0.11,0.13,0.15,0.18L64.31,21.53z M64.3,21.59l-0.33-0.76
						c-0.01-0.05-0.08-0.16-0.05-0.14c-0.03,0.02-0.08,0.09-0.12,0.13l-0.26,0.3c-0.35,0.41-0.68,0.83-1,1.26
						c-0.63,0.86-1.2,1.77-1.68,2.72c-0.47,0.95-0.87,1.95-1.17,2.97c-0.22,1.04-0.49,2.07-0.65,3.12c-0.26,2.11-0.2,4.26,0.07,6.37
						l0.11,0.79l0.03,0.2l0.02,0.1c0.01,0.04,0.02,0.16-0.06,0.27c-0.08,0.09-0.13,0.1-0.15,0.11l-0.09,0.05l-0.18,0.09l-1.44,0.75
						l-1.44,0.75l-0.72,0.37l-0.37,0.16l-0.18,0.08l-0.09,0.04c-0.01,0.01,0.03,0.01,0.03,0l-0.19-0.44l0.07,0
						c-0.01-0.01-0.07,0.01-0.07,0.01l0.04-0.02l0.17-0.08l0.33-0.16l0.66-0.31c0.44-0.21,0.89-0.41,1.31-0.66l1.29-0.7l0.65-0.35
						c0.04-0.02,0.12-0.08,0.29-0.05c0.16,0.04,0.23,0.16,0.22,0.12c-0.01-0.01,0.08,0.06,0.12,0.08l0.3,0.21
						c1.6,1.08,3.4,1.83,5.28,2.31c1.87,0.49,3.82,0.7,5.75,0.66c0.97-0.02,1.93-0.12,2.86-0.33c0.46-0.1,0.92-0.24,1.34-0.43
						c0.02-0.01,0.06-0.03,0.05-0.02c0,0-0.07,0.02-0.11,0.18c0,0.14,0.03,0.14,0.02,0.14l-0.09-0.13l-0.22-0.3l-0.43-0.61L74,40.16
						l0.42-0.11c0.84-0.22,1.75-0.31,2.39-0.8c0.33-0.24,0.6-0.54,0.8-0.9c0.02-0.05,0.14-0.3,0.34-0.36l0.31-0.13l0.61-0.25
						c0.84-0.32,1.6-0.67,2.21-1.26c0.3-0.29,0.57-0.62,0.79-0.98l0.17-0.27l0.04-0.07c0.02-0.02-0.02-0.04,0,0.12
						c0.05,0.11,0.03,0.05,0.01,0.04l-0.06-0.06l-0.46-0.47l-0.24-0.25l0.33-0.16c0.37-0.18,0.82-0.46,1.22-0.69
						c0.4-0.23,0.78-0.5,1.11-0.82c0.33-0.32,0.61-0.69,0.85-1.08c0.12-0.2,0.23-0.4,0.34-0.61c0.01-0.02,0.02-0.05,0.02-0.04
						c0,0.01-0.02,0.04,0.01,0.11c0.03,0.07,0.07,0.08,0.07,0.08l-0.13-0.04l-0.35-0.12l-0.48-0.17l0.44-0.25
						c0.67-0.38,1.35-0.62,1.81-1.11c0.23-0.24,0.42-0.54,0.57-0.85l0.11-0.24l0.02-0.04c0.01-0.03-0.03,0.07,0.05,0.16
						c0.09,0.06,0,0.01-0.03,0.01l-0.54-0.12l-0.25-0.06l0.09-0.22c0.06-0.15,0.09-0.13,0.11-0.16l0.06-0.06l0.13-0.12l0.24-0.25
						c0.16-0.17,0.31-0.35,0.45-0.54c0.28-0.38,0.53-0.78,0.75-1.2c0.22-0.42,0.41-0.85,0.59-1.3l0.22-0.61
						c-0.01,0.03,0.06,0.12,0.06,0.1l-0.04-0.01l-0.17-0.04l-0.35-0.08l-0.39-0.09l0.28-0.24c0.45-0.39,0.78-0.78,1.09-1.25
						c0.31-0.46,0.59-0.95,0.84-1.45c0.25-0.5,0.48-1.01,0.7-1.53l0.16-0.39l0.08-0.18c0,0-0.01,0.01,0,0.06
						c0.02,0.06,0.08,0.09,0.08,0.09c0.03,0.01-0.05-0.01-0.07-0.01l-0.84-0.14l-0.24-0.04l0.1-0.21c0.42-0.87,0.67-1.76,0.65-2.7
						c0.02-0.94-0.28-1.84-0.54-2.77l-0.2-0.69l-0.1-0.35c-0.02-0.05,0,0,0-0.01c-0.01-0.01,0.01,0,0,0l-0.17-0.05
						c-0.46-0.13-0.92-0.22-1.39-0.28c-0.94-0.13-1.89-0.07-2.81,0.15l-0.15,0.03l-0.03-0.15l-0.09-0.47l-0.04-0.2
						c0,0.03,0.09,0.05,0.05,0.04l-0.11,0.02c-0.3,0.07-0.6,0.17-0.87,0.3c-0.28,0.13-0.54,0.3-0.77,0.5
						c-0.24,0.2-0.43,0.44-0.64,0.68l-0.2,0.23l-0.03-0.3l-0.05-0.54l-0.03-0.27c0.02-0.05-0.07-0.08,0.08,0
						c0.03-0.01-0.05,0.02-0.08,0.03l-1,0.4c-0.33,0.13-0.64,0.31-0.92,0.51c-0.29,0.2-0.52,0.46-0.76,0.73l-0.12,0.13l-0.07-0.16
						c-0.1-0.22-0.16-0.42-0.24-0.63l-0.05-0.13c0.03,0.02,0.04,0-0.03,0.03l-0.31,0.1l-1.24,0.41c-0.4,0.17-0.78,0.38-1.13,0.62
						c-0.36,0.25-0.65,0.53-0.98,0.87l-0.08,0.08l-0.06-0.11l-0.46-0.83c0.1,0,0.01,0.01-0.01,0.05l-0.1,0.08l-0.19,0.16l-0.38,0.32
						l-1.61,1.2c-1.08,0.78-2.12,1.63-3.24,2.36l-0.05,0.03l-0.03-0.04l-0.65-0.78l-0.16-0.2c-0.05-0.07-0.04-0.04-0.13,0.02
						l-0.39,0.31c-0.52,0.43-1.02,0.88-1.5,1.35c-0.48,0.47-0.92,0.98-1.37,1.49C65.22,20.58,64.81,21.07,64.3,21.59z"/>
				</g>
			</g>
			<path class="st8" d="M62.5,36.62c-0.09,0.02-0.07-0.06-0.07-0.1c-0.05-0.47-0.12-0.93-0.16-1.4c-0.1-1.13-0.08-2.25,0.03-3.38
				c0.12-1.17,0.35-2.33,0.7-3.45c0.44-1.43,1.04-2.79,1.78-4.09c0.02-0.03,0.06-0.05,0.09-0.08c-0.01,0.04,0,0.09-0.02,0.12
				c-0.5,0.89-0.95,1.8-1.31,2.75c-0.38,0.97-0.67,1.96-0.88,2.97c-0.42,2.08-0.47,4.17-0.19,6.27c0.01,0.1,0.03,0.19,0.04,0.29
				C62.51,36.56,62.5,36.59,62.5,36.62L62.5,36.62z"/>
			<path class="st8" d="M68.44,27.72c0.42-1.8,1.07-3.5,1.92-5.14c0.58-1.12,1.24-2.19,1.99-3.2c0.03-0.04,0.07-0.05,0.11-0.08
				c-0.01,0.04-0.02,0.09-0.05,0.13c-1.08,1.48-1.98,3.05-2.71,4.73c-0.57,1.33-1.02,2.7-1.3,4.13c-0.27,1.34-0.38,2.7-0.31,4.07
				c0,0.02,0.01,0.03,0,0.05c-0.01,0.02-0.02,0.04-0.04,0.07c-0.02-0.02-0.04-0.04-0.04-0.06C68,32.27,68,32.12,67.99,31.98
				c-0.04-1.39,0.11-2.75,0.41-4.1C68.41,27.82,68.43,27.77,68.44,27.72z"/>
			<path class="st8" d="M74.96,24.48c0.28-1.29,0.63-2.28,1.09-3.22c0.67-1.36,1.55-2.58,2.56-3.7c0.59-0.65,1.21-1.27,1.86-1.85
				c0.02-0.02,0.03-0.04,0.05-0.04c0.02-0.01,0.04,0,0.06,0.01c0.01,0,0,0.04-0.01,0.05c-0.01,0.02-0.03,0.03-0.05,0.05
				c-0.99,0.9-1.91,1.85-2.73,2.9c-0.79,1.02-1.47,2.11-1.97,3.3c-0.3,0.7-0.53,1.42-0.7,2.16c-0.19,0.83-0.28,1.67-0.3,2.53
				c0,0.02,0,0.04,0,0.06c-0.01,0.03-0.03,0.06-0.04,0.09c-0.01-0.03-0.04-0.05-0.04-0.08c0-0.12,0-0.24,0.01-0.36
				C74.78,25.63,74.87,24.92,74.96,24.48z"/>
			<path class="st8" d="M68.52,35.67c-0.69-0.15-1.38-0.33-2.05-0.57c-0.29-0.1-0.57-0.21-0.85-0.32c-0.01-0.01-0.03-0.01-0.04-0.02
				c-0.02-0.02-0.04-0.04-0.06-0.07c0.03,0,0.07-0.02,0.09-0.01c0.21,0.08,0.42,0.17,0.63,0.24c1.01,0.37,2.06,0.63,3.12,0.81
				c1.08,0.18,2.17,0.27,3.26,0.27c1.58,0,3.14-0.18,4.67-0.56c0.1-0.02,0.2-0.05,0.3-0.07c0.03-0.01,0.06,0.01,0.08,0.02
				c-0.02,0.02-0.04,0.06-0.06,0.06c-0.38,0.09-0.77,0.18-1.15,0.26c-1.55,0.31-3.11,0.42-4.68,0.35c-1.08-0.04-2.15-0.17-3.21-0.4
				C68.55,35.68,68.53,35.67,68.52,35.67z"/>
			<path class="st8" d="M66.24,39.92c-1.33-0.3-2.57-0.75-3.74-1.39c-0.42-0.23-0.83-0.5-1.24-0.76c-0.02-0.01-0.04-0.02-0.05-0.03
				c-0.01-0.02-0.01-0.04-0.02-0.07c0.02,0,0.04-0.01,0.06,0c0.02,0.01,0.04,0.02,0.06,0.04c0.95,0.64,1.96,1.17,3.03,1.57
				c0.97,0.36,1.97,0.61,2.99,0.77c1.44,0.22,2.89,0.27,4.34,0.2c0.29-0.01,0.58-0.03,0.87-0.05c0.02,0,0.05-0.01,0.07,0
				c0.02,0,0.03,0.02,0.05,0.04c-0.01,0.01-0.03,0.04-0.04,0.04c-0.02,0.01-0.04,0.01-0.07,0.01c-1.26,0.09-2.52,0.11-3.77,0.02
				C67.92,40.23,67.06,40.11,66.24,39.92z"/>
			<path class="st8" d="M59.03,38.81c0.03-0.02,0.16-0.1,0.19-0.12c1.09-0.63,2.16-1.3,3.2-2.01c0.03-0.02,0.05-0.05,0.07-0.07l0,0
				c0.08-0.05,0.16-0.09,0.24-0.14c2.44-1.66,4.78-3.47,7.05-5.35c2.1-1.74,4.15-3.53,6.19-5.34c1.95-1.73,3.9-3.46,5.85-5.19
				c0.22-0.19,0.44-0.38,0.65-0.57c-0.01-0.05-0.03-0.09-0.03-0.13c0.01-0.56,0.06-1.11,0.16-1.66c0.17-0.9,0.49-1.74,0.95-2.52
				c0.52-0.88,1.18-1.63,1.93-2.32c0.02-0.02,0.03-0.03,0.05-0.04c0.02-0.01,0.04,0,0.06,0c0,0.02,0,0.04-0.01,0.06
				c-0.01,0.01-0.02,0.02-0.03,0.03c-0.29,0.29-0.6,0.57-0.87,0.88c-0.62,0.68-1.12,1.43-1.49,2.27c-0.4,0.92-0.61,1.89-0.66,2.9
				c-0.01,0.15-0.01,0.3-0.01,0.47c0.04-0.03,0.06-0.05,0.08-0.06c1.17-0.99,2.33-1.99,3.5-2.98c0.16-0.14,0.32-0.27,0.49-0.4
				c0.02-0.01,0.05-0.01,0.08-0.01c-0.01,0.02-0.01,0.05-0.03,0.07c-0.01,0.02-0.03,0.02-0.04,0.04c-0.95,0.8-1.91,1.59-2.85,2.41
				c-2.04,1.78-4.07,3.58-6.11,5.38c-0.02,0.02-0.04,0.04-0.07,0.08c0.04,0.01,0.05,0.01,0.07,0.02c0.34,0.05,0.68,0.12,1.03,0.16
				c0.88,0.11,1.75,0.07,2.62-0.08c1.35-0.23,2.6-0.73,3.78-1.42c1.28-0.75,2.41-1.68,3.4-2.78c0.02-0.02,0.03-0.04,0.05-0.05
				c0.01-0.01,0.04-0.01,0.05,0c0.01,0.01,0.01,0.04,0.01,0.05c-0.01,0.02-0.03,0.05-0.05,0.07c-0.27,0.27-0.52,0.56-0.8,0.82
				c-1.25,1.18-2.66,2.14-4.26,2.78c-1.9,0.77-3.86,0.98-5.87,0.54c-0.08-0.02-0.14,0-0.2,0.05c-2.33,2.07-4.66,4.14-7.05,6.13
				c-0.02,0.02-0.04,0.04-0.07,0.07c0.04,0.01,0.07,0.03,0.1,0.03c0.54,0.11,1.07,0.24,1.61,0.33c0.68,0.11,1.37,0.13,2.06,0.11
				c1.59-0.04,3.14-0.35,4.66-0.83c2.34-0.75,4.51-1.85,6.54-3.24c0.02-0.01,0.04-0.03,0.06-0.04c0.01,0,0.04,0,0.05,0.01
				c0.01,0.01,0,0.04-0.01,0.05c-0.02,0.02-0.04,0.03-0.06,0.05c-0.32,0.21-0.63,0.42-0.95,0.62c-1.42,0.89-2.91,1.64-4.48,2.23
				c-1.45,0.55-2.94,0.95-4.48,1.13c-1.43,0.17-2.86,0.14-4.27-0.16c-0.31-0.07-0.61-0.15-0.93-0.23c-3.48,2.88-7.15,5.67-11.1,7.96
				L59.03,38.81z"/>
		</g>
	</g>
</g>
</svg>
